M48
; DRILL file {KiCad 7.0.10} date Wed Jun 25 11:10:08 2025
; FORMAT={-:-/ absolute / metric / decimal}
; #@! TF.CreationDate,2025-06-25T11:10:08-05:00
; #@! TF.GenerationSoftware,Kicad,Pcbnew,7.0.10
; #@! TF.FileFunction,Plated,1,4,PTH
FMAT,2
METRIC
; #@! TA.AperFunction,Plated,PTH,ViaDrill
T1C0.300
; #@! TA.AperFunction,Plated,PTH,ViaDrill
T2C0.400
; #@! TA.AperFunction,Plated,PTH,ComponentDrill
T3C0.750
; #@! TA.AperFunction,Plated,PTH,ComponentDrill
T4C1.000
%
G90
G05
T1
X102.0Y-88.5
X102.0Y-89.5
X103.5Y-86.0
X111.0Y-88.0
X115.25Y-86.0
X115.5Y-83.0
X116.75Y-87.0
X116.75Y-94.0
X117.75Y-91.0
X119.0Y-94.5
X122.5Y-85.25
X126.5Y-93.5
X126.875Y-88.125
X127.0Y-85.0
X127.0Y-95.75
X127.75Y-91.5
X131.25Y-89.0
X132.5Y-95.25
T2
X99.35Y-99.9
X106.0Y-86.638
X116.0Y-84.75
X116.45Y-87.901
X120.75Y-94.5
X121.0Y-93.5
X121.25Y-91.0
X123.4Y-93.085
X123.75Y-87.75
X127.0Y-90.75
X129.5Y-99.0
X129.825Y-84.35
X131.5Y-92.725
T3
X107.82Y-95.389
X107.82Y-99.25
X111.68Y-95.389
T4
X101.0Y-91.75
X114.25Y-88.5
X119.25Y-98.0
X124.38Y-100.5
X126.92Y-100.5
X129.46Y-100.5
X132.0Y-100.5
M30
