%TF.GenerationSoftware,KiCad,Pcbnew,7.0.10*%
%TF.CreationDate,2025-06-25T11:10:32-05:00*%
%TF.ProjectId,ppg-pcb-4-afe,7070672d-7063-4622-9d34-2d6166652e6b,0*%
%TF.SameCoordinates,Original*%
%TF.FileFunction,Drillmap*%
%TF.FilePolarity,Positive*%
%FSLAX45Y45*%
G04 Gerber Fmt 4.5, Leading zero omitted, Abs format (unit mm)*
G04 Created by KiCad (PCBNEW 7.0.10) date 2025-06-25 11:10:32*
%MOMM*%
%LPD*%
G01*
G04 APERTURE LIST*
%ADD10C,0.100000*%
%ADD11C,0.200000*%
G04 APERTURE END LIST*
D10*
X9826500Y-8175000D02*
X13400000Y-8175000D01*
X13400000Y-10250000D01*
X9826500Y-10250000D01*
X9826500Y-8175000D01*
D11*
X10082277Y-10566484D02*
X10082277Y-10366484D01*
X10082277Y-10366484D02*
X10129896Y-10366484D01*
X10129896Y-10366484D02*
X10158467Y-10376008D01*
X10158467Y-10376008D02*
X10177515Y-10395055D01*
X10177515Y-10395055D02*
X10187039Y-10414103D01*
X10187039Y-10414103D02*
X10196563Y-10452198D01*
X10196563Y-10452198D02*
X10196563Y-10480770D01*
X10196563Y-10480770D02*
X10187039Y-10518865D01*
X10187039Y-10518865D02*
X10177515Y-10537912D01*
X10177515Y-10537912D02*
X10158467Y-10556960D01*
X10158467Y-10556960D02*
X10129896Y-10566484D01*
X10129896Y-10566484D02*
X10082277Y-10566484D01*
X10282277Y-10566484D02*
X10282277Y-10433150D01*
X10282277Y-10471246D02*
X10291801Y-10452198D01*
X10291801Y-10452198D02*
X10301324Y-10442674D01*
X10301324Y-10442674D02*
X10320372Y-10433150D01*
X10320372Y-10433150D02*
X10339420Y-10433150D01*
X10406086Y-10566484D02*
X10406086Y-10433150D01*
X10406086Y-10366484D02*
X10396563Y-10376008D01*
X10396563Y-10376008D02*
X10406086Y-10385531D01*
X10406086Y-10385531D02*
X10415610Y-10376008D01*
X10415610Y-10376008D02*
X10406086Y-10366484D01*
X10406086Y-10366484D02*
X10406086Y-10385531D01*
X10529896Y-10566484D02*
X10510848Y-10556960D01*
X10510848Y-10556960D02*
X10501324Y-10537912D01*
X10501324Y-10537912D02*
X10501324Y-10366484D01*
X10634658Y-10566484D02*
X10615610Y-10556960D01*
X10615610Y-10556960D02*
X10606086Y-10537912D01*
X10606086Y-10537912D02*
X10606086Y-10366484D01*
X10863229Y-10566484D02*
X10863229Y-10366484D01*
X10863229Y-10366484D02*
X10929896Y-10509341D01*
X10929896Y-10509341D02*
X10996563Y-10366484D01*
X10996563Y-10366484D02*
X10996563Y-10566484D01*
X11177515Y-10566484D02*
X11177515Y-10461722D01*
X11177515Y-10461722D02*
X11167991Y-10442674D01*
X11167991Y-10442674D02*
X11148944Y-10433150D01*
X11148944Y-10433150D02*
X11110848Y-10433150D01*
X11110848Y-10433150D02*
X11091801Y-10442674D01*
X11177515Y-10556960D02*
X11158467Y-10566484D01*
X11158467Y-10566484D02*
X11110848Y-10566484D01*
X11110848Y-10566484D02*
X11091801Y-10556960D01*
X11091801Y-10556960D02*
X11082277Y-10537912D01*
X11082277Y-10537912D02*
X11082277Y-10518865D01*
X11082277Y-10518865D02*
X11091801Y-10499817D01*
X11091801Y-10499817D02*
X11110848Y-10490293D01*
X11110848Y-10490293D02*
X11158467Y-10490293D01*
X11158467Y-10490293D02*
X11177515Y-10480770D01*
X11272753Y-10433150D02*
X11272753Y-10633150D01*
X11272753Y-10442674D02*
X11291801Y-10433150D01*
X11291801Y-10433150D02*
X11329896Y-10433150D01*
X11329896Y-10433150D02*
X11348943Y-10442674D01*
X11348943Y-10442674D02*
X11358467Y-10452198D01*
X11358467Y-10452198D02*
X11367991Y-10471246D01*
X11367991Y-10471246D02*
X11367991Y-10528389D01*
X11367991Y-10528389D02*
X11358467Y-10547436D01*
X11358467Y-10547436D02*
X11348943Y-10556960D01*
X11348943Y-10556960D02*
X11329896Y-10566484D01*
X11329896Y-10566484D02*
X11291801Y-10566484D01*
X11291801Y-10566484D02*
X11272753Y-10556960D01*
X11453705Y-10547436D02*
X11463229Y-10556960D01*
X11463229Y-10556960D02*
X11453705Y-10566484D01*
X11453705Y-10566484D02*
X11444182Y-10556960D01*
X11444182Y-10556960D02*
X11453705Y-10547436D01*
X11453705Y-10547436D02*
X11453705Y-10566484D01*
X11453705Y-10442674D02*
X11463229Y-10452198D01*
X11463229Y-10452198D02*
X11453705Y-10461722D01*
X11453705Y-10461722D02*
X11444182Y-10452198D01*
X11444182Y-10452198D02*
X11453705Y-10442674D01*
X11453705Y-10442674D02*
X11453705Y-10461722D01*
M02*
