G04 #@! TF.GenerationSoftware,KiCad,Pcbnew,7.0.10*
G04 #@! TF.CreationDate,2025-06-25T11:08:38-05:00*
G04 #@! TF.ProjectId,ppg-pcb-4-afe,7070672d-7063-4622-9d34-2d6166652e6b,0*
G04 #@! TF.SameCoordinates,Original*
G04 #@! TF.FileFunction,Copper,L1,Top*
G04 #@! TF.FilePolarity,Positive*
%FSLAX46Y46*%
G04 Gerber Fmt 4.6, Leading zero omitted, Abs format (unit mm)*
G04 Created by KiCad (PCBNEW 7.0.10) date 2025-06-25 11:08:38*
%MOMM*%
%LPD*%
G01*
G04 APERTURE LIST*
G04 Aperture macros list*
%AMRoundRect*
0 Rectangle with rounded corners*
0 $1 Rounding radius*
0 $2 $3 $4 $5 $6 $7 $8 $9 X,Y pos of 4 corners*
0 Add a 4 corners polygon primitive as box body*
4,1,4,$2,$3,$4,$5,$6,$7,$8,$9,$2,$3,0*
0 Add four circle primitives for the rounded corners*
1,1,$1+$1,$2,$3*
1,1,$1+$1,$4,$5*
1,1,$1+$1,$6,$7*
1,1,$1+$1,$8,$9*
0 Add four rect primitives between the rounded corners*
20,1,$1+$1,$2,$3,$4,$5,0*
20,1,$1+$1,$4,$5,$6,$7,0*
20,1,$1+$1,$6,$7,$8,$9,0*
20,1,$1+$1,$8,$9,$2,$3,0*%
G04 Aperture macros list end*
G04 #@! TA.AperFunction,SMDPad,CuDef*
%ADD10RoundRect,0.200000X-0.200000X-0.275000X0.200000X-0.275000X0.200000X0.275000X-0.200000X0.275000X0*%
G04 #@! TD*
G04 #@! TA.AperFunction,SMDPad,CuDef*
%ADD11RoundRect,0.225000X-0.225000X-0.250000X0.225000X-0.250000X0.225000X0.250000X-0.225000X0.250000X0*%
G04 #@! TD*
G04 #@! TA.AperFunction,SMDPad,CuDef*
%ADD12C,1.000000*%
G04 #@! TD*
G04 #@! TA.AperFunction,SMDPad,CuDef*
%ADD13RoundRect,0.225000X0.225000X0.250000X-0.225000X0.250000X-0.225000X-0.250000X0.225000X-0.250000X0*%
G04 #@! TD*
G04 #@! TA.AperFunction,ComponentPad*
%ADD14R,1.700000X1.700000*%
G04 #@! TD*
G04 #@! TA.AperFunction,ComponentPad*
%ADD15O,1.700000X1.700000*%
G04 #@! TD*
G04 #@! TA.AperFunction,SMDPad,CuDef*
%ADD16RoundRect,0.225000X-0.250000X0.225000X-0.250000X-0.225000X0.250000X-0.225000X0.250000X0.225000X0*%
G04 #@! TD*
G04 #@! TA.AperFunction,SMDPad,CuDef*
%ADD17RoundRect,0.150000X-0.512500X-0.150000X0.512500X-0.150000X0.512500X0.150000X-0.512500X0.150000X0*%
G04 #@! TD*
G04 #@! TA.AperFunction,SMDPad,CuDef*
%ADD18RoundRect,0.250000X0.375000X0.625000X-0.375000X0.625000X-0.375000X-0.625000X0.375000X-0.625000X0*%
G04 #@! TD*
G04 #@! TA.AperFunction,ComponentPad*
%ADD19C,2.000000*%
G04 #@! TD*
G04 #@! TA.AperFunction,SMDPad,CuDef*
%ADD20RoundRect,0.250000X-0.262500X-0.450000X0.262500X-0.450000X0.262500X0.450000X-0.262500X0.450000X0*%
G04 #@! TD*
G04 #@! TA.AperFunction,SMDPad,CuDef*
%ADD21RoundRect,0.225000X0.250000X-0.225000X0.250000X0.225000X-0.250000X0.225000X-0.250000X-0.225000X0*%
G04 #@! TD*
G04 #@! TA.AperFunction,ComponentPad*
%ADD22C,1.350000*%
G04 #@! TD*
G04 #@! TA.AperFunction,SMDPad,CuDef*
%ADD23R,1.100000X0.250000*%
G04 #@! TD*
G04 #@! TA.AperFunction,ViaPad*
%ADD24C,0.700000*%
G04 #@! TD*
G04 #@! TA.AperFunction,ViaPad*
%ADD25C,0.800000*%
G04 #@! TD*
G04 #@! TA.AperFunction,Conductor*
%ADD26C,0.500000*%
G04 #@! TD*
G04 #@! TA.AperFunction,Conductor*
%ADD27C,0.250000*%
G04 #@! TD*
G04 #@! TA.AperFunction,Conductor*
%ADD28C,0.300000*%
G04 #@! TD*
G04 #@! TA.AperFunction,Conductor*
%ADD29C,0.200000*%
G04 #@! TD*
G04 APERTURE END LIST*
D10*
X124675000Y-83000000D03*
X126325000Y-83000000D03*
D11*
X124725000Y-86000000D03*
X126275000Y-86000000D03*
D12*
X99750000Y-83500000D03*
D13*
X120275000Y-91000000D03*
X118725000Y-91000000D03*
D10*
X128175000Y-83000000D03*
X129825000Y-83000000D03*
D11*
X124725000Y-89000000D03*
X126275000Y-89000000D03*
D10*
X124175000Y-95000000D03*
X125825000Y-95000000D03*
D14*
X132000000Y-100500000D03*
D15*
X129460000Y-100500000D03*
X126920000Y-100500000D03*
X124380000Y-100500000D03*
D10*
X112350000Y-91000000D03*
X114000000Y-91000000D03*
D16*
X132500000Y-92725000D03*
X132500000Y-94275000D03*
D10*
X112675000Y-83000000D03*
X114325000Y-83000000D03*
D17*
X117862500Y-86050000D03*
X117862500Y-87000000D03*
X117862500Y-87950000D03*
X120137500Y-87950000D03*
X120137500Y-86050000D03*
D18*
X102150000Y-101250000D03*
X99350000Y-101250000D03*
D13*
X106275000Y-85750000D03*
X104725000Y-85750000D03*
D19*
X101000000Y-91750000D03*
D12*
X116500000Y-100750000D03*
D17*
X103362500Y-87550000D03*
X103362500Y-88500000D03*
X103362500Y-89450000D03*
X105637500Y-89450000D03*
X105637500Y-87550000D03*
D20*
X104587500Y-83000000D03*
X106412500Y-83000000D03*
D11*
X109225000Y-83000000D03*
X110775000Y-83000000D03*
D16*
X126000000Y-90725000D03*
X126000000Y-92275000D03*
D10*
X112675000Y-86000000D03*
X114325000Y-86000000D03*
D12*
X132500000Y-83500000D03*
D19*
X114250000Y-88500000D03*
D10*
X120675000Y-83000000D03*
X122325000Y-83000000D03*
D21*
X122500000Y-87775000D03*
X122500000Y-86225000D03*
D10*
X109175000Y-89000000D03*
X110825000Y-89000000D03*
X128675000Y-89000000D03*
X130325000Y-89000000D03*
D19*
X119250000Y-98000000D03*
D10*
X128675000Y-86000000D03*
X130325000Y-86000000D03*
D22*
X107819600Y-99250000D03*
X107819600Y-95389200D03*
X111680400Y-95389200D03*
D16*
X100500000Y-85725000D03*
X100500000Y-87275000D03*
D11*
X117225000Y-83000000D03*
X118775000Y-83000000D03*
D23*
X117850000Y-93000000D03*
X117850000Y-93500000D03*
X117850000Y-94000000D03*
X117850000Y-94500000D03*
X117850000Y-95000000D03*
X122150000Y-95000000D03*
X122150000Y-94500000D03*
X122150000Y-94000000D03*
X122150000Y-93500000D03*
X122150000Y-93000000D03*
D11*
X109225000Y-86000000D03*
X110775000Y-86000000D03*
D17*
X127862500Y-92550000D03*
X127862500Y-93500000D03*
X127862500Y-94450000D03*
X130137500Y-94450000D03*
X130137500Y-92550000D03*
D10*
X104175000Y-91500000D03*
X105825000Y-91500000D03*
D24*
X116750000Y-87000000D03*
X122500000Y-85250000D03*
X111000000Y-88000000D03*
X132500000Y-95250000D03*
X117750000Y-91000000D03*
X102000000Y-88500000D03*
X115500000Y-83000000D03*
X126875000Y-88125000D03*
X127000000Y-85000000D03*
X116750000Y-94000000D03*
X102000000Y-89500000D03*
X126500000Y-93500000D03*
X115250000Y-86000000D03*
X103500000Y-86000000D03*
X131250000Y-89000000D03*
D25*
X99350000Y-99900000D03*
X123400000Y-93085075D03*
X121000000Y-93500000D03*
X131500000Y-92725000D03*
X120750000Y-94500000D03*
X129500000Y-99000000D03*
X121250000Y-91000000D03*
X106000000Y-86637500D03*
X123750000Y-87750000D03*
X116449583Y-87901251D03*
X116000000Y-84750000D03*
D24*
X127000000Y-95750000D03*
X127750000Y-91500000D03*
X119000000Y-94500000D03*
D25*
X127000000Y-90750000D03*
X129825000Y-84350000D03*
D26*
X115500000Y-83000000D02*
X114325000Y-83000000D01*
X126275000Y-88725000D02*
X126275000Y-89000000D01*
X111000000Y-88825000D02*
X110825000Y-89000000D01*
X117750000Y-91000000D02*
X118725000Y-91000000D01*
X126275000Y-86000000D02*
X126275000Y-85725000D01*
X111000000Y-88000000D02*
X111000000Y-88825000D01*
X126275000Y-85725000D02*
X127000000Y-85000000D01*
X126500000Y-93500000D02*
X127862500Y-93500000D01*
X102000000Y-89500000D02*
X103312500Y-89500000D01*
D27*
X117850000Y-94000000D02*
X116750000Y-94000000D01*
D26*
X103312500Y-89500000D02*
X103362500Y-89450000D01*
X102000000Y-88500000D02*
X103362500Y-88500000D01*
X115250000Y-86000000D02*
X114325000Y-86000000D01*
X104475000Y-86000000D02*
X104725000Y-85750000D01*
X132500000Y-95250000D02*
X132500000Y-94275000D01*
X99350000Y-101250000D02*
X99350000Y-99900000D01*
X122500000Y-85250000D02*
X122500000Y-86225000D01*
X116750000Y-87000000D02*
X117862500Y-87000000D01*
X103500000Y-86000000D02*
X104475000Y-86000000D01*
X126875000Y-88125000D02*
X126275000Y-88725000D01*
X130325000Y-89000000D02*
X131250000Y-89000000D01*
X106750000Y-91500000D02*
X107625000Y-92375000D01*
X103500000Y-100750000D02*
X103000000Y-101250000D01*
X107625000Y-92375000D02*
X107819600Y-92569600D01*
X103500000Y-95250000D02*
X103500000Y-100750000D01*
X103000000Y-101250000D02*
X102150000Y-101250000D01*
D28*
X105825000Y-91500000D02*
X106750000Y-91500000D01*
D26*
X107125000Y-92875000D02*
X107625000Y-92375000D01*
X105875000Y-92875000D02*
X107125000Y-92875000D01*
X107819600Y-92569600D02*
X107819600Y-95389200D01*
X105875000Y-92875000D02*
X103500000Y-95250000D01*
D27*
X123314925Y-93000000D02*
X123400000Y-93085075D01*
X122150000Y-93000000D02*
X123314925Y-93000000D01*
X122150000Y-93500000D02*
X121000000Y-93500000D01*
X124175000Y-95000000D02*
X124175000Y-95675000D01*
X130137500Y-94450000D02*
X130137500Y-93887500D01*
X124175000Y-95675000D02*
X125000000Y-96500000D01*
X130137500Y-93887500D02*
X129150000Y-92900000D01*
X125000000Y-96500000D02*
X128750000Y-96500000D01*
X128750000Y-96500000D02*
X130137500Y-95112500D01*
X128675000Y-89500000D02*
X128675000Y-89000000D01*
X130137500Y-95112500D02*
X130137500Y-94450000D01*
X129150000Y-89975000D02*
X128675000Y-89500000D01*
X129150000Y-92900000D02*
X129150000Y-89975000D01*
D26*
X105637500Y-87000000D02*
X105637500Y-87550000D01*
X121250000Y-87000000D02*
X121250000Y-86250000D01*
X131500000Y-92725000D02*
X132500000Y-92725000D01*
D29*
X120989950Y-94500000D02*
X120750000Y-94500000D01*
D26*
X131050000Y-92550000D02*
X130137500Y-92550000D01*
X122500000Y-87775000D02*
X122025000Y-87775000D01*
D29*
X121489950Y-94000000D02*
X120989950Y-94500000D01*
D26*
X121250000Y-91000000D02*
X120750000Y-91000000D01*
X129500000Y-99000000D02*
X129500000Y-100460000D01*
D29*
X122150000Y-94000000D02*
X121489950Y-94000000D01*
D26*
X106000000Y-86637500D02*
X106000000Y-86025000D01*
X120275000Y-91000000D02*
X121250000Y-91000000D01*
X131500000Y-92725000D02*
X131225000Y-92725000D01*
X123750000Y-87750000D02*
X122525000Y-87750000D01*
X122525000Y-87750000D02*
X122500000Y-87775000D01*
X121050000Y-86050000D02*
X120137500Y-86050000D01*
X106000000Y-86637500D02*
X105637500Y-87000000D01*
X106000000Y-86025000D02*
X106275000Y-85750000D01*
X131225000Y-92725000D02*
X131050000Y-92550000D01*
X121250000Y-86250000D02*
X121050000Y-86050000D01*
X122025000Y-87775000D02*
X121250000Y-87000000D01*
D27*
X103045405Y-91500000D02*
X103250000Y-91500000D01*
X104800000Y-89450000D02*
X103045405Y-91204595D01*
X103000000Y-93500000D02*
X103000000Y-91750000D01*
X99000000Y-94000000D02*
X99500000Y-94500000D01*
X99500000Y-94500000D02*
X102000000Y-94500000D01*
X104675000Y-83000000D02*
X103750000Y-83000000D01*
X100500000Y-85725000D02*
X99775000Y-85725000D01*
X102000000Y-94500000D02*
X103000000Y-93500000D01*
X99000000Y-86500000D02*
X99000000Y-94000000D01*
X103000000Y-91750000D02*
X103250000Y-91500000D01*
X101750000Y-85000000D02*
X101750000Y-85500000D01*
X103045405Y-91204595D02*
X103045405Y-91500000D01*
X105637500Y-89450000D02*
X104800000Y-89450000D01*
X103750000Y-83000000D02*
X101750000Y-85000000D01*
X101750000Y-85500000D02*
X101525000Y-85725000D01*
X101525000Y-85725000D02*
X100500000Y-85725000D01*
X99775000Y-85725000D02*
X99000000Y-86500000D01*
X103250000Y-91500000D02*
X104175000Y-91500000D01*
X110200000Y-84550000D02*
X110775000Y-83975000D01*
X110775000Y-83975000D02*
X110775000Y-83000000D01*
X110775000Y-83000000D02*
X112675000Y-83000000D01*
X109700000Y-84550000D02*
X110200000Y-84550000D01*
X109225000Y-86000000D02*
X109225000Y-85025000D01*
X109225000Y-85025000D02*
X109700000Y-84550000D01*
X117225000Y-83775000D02*
X117000000Y-84000000D01*
X117225000Y-82525000D02*
X117225000Y-83000000D01*
X111575000Y-85200000D02*
X110775000Y-86000000D01*
X117000000Y-84000000D02*
X112750000Y-84000000D01*
X120675000Y-82425000D02*
X120450000Y-82200000D01*
X112750000Y-84000000D02*
X111575000Y-85175000D01*
X120675000Y-83000000D02*
X120675000Y-82425000D01*
X117225000Y-83000000D02*
X117225000Y-83775000D01*
X111575000Y-85175000D02*
X111575000Y-85200000D01*
X120450000Y-82200000D02*
X117550000Y-82200000D01*
X117550000Y-82200000D02*
X117225000Y-82525000D01*
X118775000Y-84225000D02*
X118450000Y-84550000D01*
X118450000Y-84550000D02*
X118063604Y-84550000D01*
X117863604Y-84750000D02*
X116000000Y-84750000D01*
D26*
X116449583Y-87901251D02*
X117813751Y-87901251D01*
D27*
X118775000Y-83000000D02*
X118775000Y-84225000D01*
D26*
X117813751Y-87901251D02*
X117862500Y-87950000D01*
D27*
X118063604Y-84550000D02*
X117863604Y-84750000D01*
X116000000Y-84750000D02*
X113000000Y-84750000D01*
X112675000Y-85075000D02*
X112675000Y-86000000D01*
X113000000Y-84750000D02*
X112675000Y-85075000D01*
D28*
X126325000Y-83925000D02*
X125750000Y-84500000D01*
X125750000Y-84500000D02*
X125500000Y-84500000D01*
D27*
X124725000Y-86000000D02*
X124725000Y-85275000D01*
D28*
X126325000Y-83000000D02*
X126325000Y-83925000D01*
D27*
X124725000Y-85275000D02*
X125500000Y-84500000D01*
X126325000Y-83000000D02*
X128175000Y-83000000D01*
X124725000Y-89000000D02*
X124725000Y-88275000D01*
X124725000Y-92679595D02*
X124725000Y-89000000D01*
X127862500Y-94450000D02*
X126800000Y-94450000D01*
X125550000Y-87450000D02*
X129300000Y-87450000D01*
X126800000Y-94450000D02*
X126750000Y-94500000D01*
X129300000Y-87450000D02*
X130325000Y-86425000D01*
X126425000Y-94175000D02*
X126220405Y-94175000D01*
X130325000Y-86425000D02*
X130325000Y-86000000D01*
X124725000Y-88275000D02*
X125550000Y-87450000D01*
X126750000Y-94500000D02*
X126425000Y-94175000D01*
X126220405Y-94175000D02*
X124725000Y-92679595D01*
X126250000Y-91500000D02*
X126000000Y-91750000D01*
X126000000Y-91750000D02*
X126000000Y-92275000D01*
X126250000Y-95000000D02*
X127000000Y-95750000D01*
D29*
X119000000Y-94500000D02*
X117850000Y-94500000D01*
D28*
X119000000Y-94500000D02*
X119250000Y-94750000D01*
D27*
X127750000Y-92437500D02*
X127862500Y-92550000D01*
X127750000Y-91500000D02*
X126250000Y-91500000D01*
D28*
X119250000Y-94750000D02*
X119250000Y-98000000D01*
D27*
X125825000Y-95000000D02*
X126250000Y-95000000D01*
X127750000Y-91500000D02*
X127750000Y-92250000D01*
X127750000Y-92250000D02*
X127750000Y-92437500D01*
X128675000Y-85075000D02*
X128675000Y-86000000D01*
X126000000Y-90725000D02*
X127000000Y-90750000D01*
X129825000Y-84350000D02*
X129825000Y-83000000D01*
X129400000Y-84350000D02*
X128675000Y-85075000D01*
X129825000Y-84350000D02*
X129400000Y-84350000D01*
D28*
X112500000Y-92000000D02*
X111500000Y-92000000D01*
X116373833Y-90750000D02*
X115123833Y-92000000D01*
D27*
X109175000Y-89475000D02*
X109500000Y-89800000D01*
D28*
X115123833Y-92000000D02*
X112500000Y-92000000D01*
D27*
X120137500Y-88362500D02*
X119950000Y-88550000D01*
X120137500Y-87950000D02*
X120137500Y-88362500D01*
X119950000Y-88550000D02*
X118888604Y-88550000D01*
X116688604Y-90750000D02*
X116373833Y-90750000D01*
X109175000Y-89000000D02*
X109175000Y-89475000D01*
X109800000Y-89800000D02*
X111000000Y-91000000D01*
D28*
X112350000Y-91850000D02*
X112500000Y-92000000D01*
D27*
X109500000Y-89800000D02*
X109800000Y-89800000D01*
D28*
X111000000Y-91500000D02*
X111000000Y-91000000D01*
X111500000Y-92000000D02*
X111000000Y-91500000D01*
X112350000Y-91000000D02*
X112350000Y-91850000D01*
D27*
X118888604Y-88550000D02*
X116688604Y-90750000D01*
D26*
X114250000Y-88500000D02*
X114250000Y-88300000D01*
X114250000Y-88300000D02*
X116450000Y-86100000D01*
D27*
X118250000Y-85000000D02*
X117862500Y-85387500D01*
X124675000Y-83000000D02*
X122325000Y-83000000D01*
X117862500Y-85387500D02*
X117862500Y-86050000D01*
X122325000Y-83000000D02*
X122325000Y-83425000D01*
X119000000Y-85000000D02*
X118250000Y-85000000D01*
D28*
X114000000Y-88750000D02*
X114250000Y-88500000D01*
D27*
X119500000Y-84500000D02*
X119000000Y-85000000D01*
D28*
X114000000Y-91000000D02*
X114000000Y-88750000D01*
D26*
X116450000Y-86100000D02*
X116450000Y-86050000D01*
D27*
X121250000Y-84500000D02*
X119500000Y-84500000D01*
X117862500Y-86050000D02*
X116450000Y-86050000D01*
X122325000Y-83425000D02*
X121250000Y-84500000D01*
X101545405Y-87550000D02*
X103362500Y-87550000D01*
X105525000Y-83800000D02*
X106325000Y-83000000D01*
D26*
X100500000Y-87275000D02*
X100500000Y-91250000D01*
D27*
X100500000Y-87275000D02*
X101270405Y-87275000D01*
X101270405Y-87275000D02*
X101545405Y-87550000D01*
X101545405Y-86954595D02*
X103750000Y-84750000D01*
X105250000Y-84750000D02*
X105525000Y-84475000D01*
X103750000Y-84750000D02*
X105250000Y-84750000D01*
D26*
X100500000Y-91250000D02*
X101000000Y-91750000D01*
D27*
X101545405Y-87550000D02*
X101545405Y-86954595D01*
X105525000Y-84475000D02*
X105525000Y-83800000D01*
X106325000Y-83000000D02*
X109225000Y-83000000D01*
M02*
