%TF.GenerationSoftware,KiCad,Pcbnew,7.0.10*%
%TF.CreationDate,2025-06-25T11:10:32-05:00*%
%TF.ProjectId,ppg-pcb-4-afe,7070672d-7063-4622-9d34-2d6166652e6b,0*%
%TF.SameCoordinates,Original*%
%TF.FileFunction,Drillmap*%
%TF.FilePolarity,Positive*%
%FSLAX45Y45*%
G04 Gerber Fmt 4.5, Leading zero omitted, Abs format (unit mm)*
G04 Created by KiCad (PCBNEW 7.0.10) date 2025-06-25 11:10:32*
%MOMM*%
%LPD*%
G01*
G04 APERTURE LIST*
%ADD10C,0.100000*%
%ADD11C,0.200000*%
G04 APERTURE END LIST*
D10*
X9826500Y-8175000D02*
X13400000Y-8175000D01*
X13400000Y-10250000D01*
X9826500Y-10250000D01*
X9826500Y-8175000D01*
D11*
D10*
X10185000Y-8835000D02*
X10215000Y-8865000D01*
X10215000Y-8835000D02*
X10185000Y-8865000D01*
X10185000Y-8935000D02*
X10215000Y-8965000D01*
X10215000Y-8935000D02*
X10185000Y-8965000D01*
X10335000Y-8585000D02*
X10365000Y-8615000D01*
X10365000Y-8585000D02*
X10335000Y-8615000D01*
X11085000Y-8785000D02*
X11115000Y-8815000D01*
X11115000Y-8785000D02*
X11085000Y-8815000D01*
X11510000Y-8585000D02*
X11540000Y-8615000D01*
X11540000Y-8585000D02*
X11510000Y-8615000D01*
X11535000Y-8285000D02*
X11565000Y-8315000D01*
X11565000Y-8285000D02*
X11535000Y-8315000D01*
X11660000Y-8685000D02*
X11690000Y-8715000D01*
X11690000Y-8685000D02*
X11660000Y-8715000D01*
X11660000Y-9385000D02*
X11690000Y-9415000D01*
X11690000Y-9385000D02*
X11660000Y-9415000D01*
X11760000Y-9085000D02*
X11790000Y-9115000D01*
X11790000Y-9085000D02*
X11760000Y-9115000D01*
X11885000Y-9435000D02*
X11915000Y-9465000D01*
X11915000Y-9435000D02*
X11885000Y-9465000D01*
X12235000Y-8510000D02*
X12265000Y-8540000D01*
X12265000Y-8510000D02*
X12235000Y-8540000D01*
X12635000Y-9335000D02*
X12665000Y-9365000D01*
X12665000Y-9335000D02*
X12635000Y-9365000D01*
X12672500Y-8797500D02*
X12702500Y-8827500D01*
X12702500Y-8797500D02*
X12672500Y-8827500D01*
X12685000Y-8485000D02*
X12715000Y-8515000D01*
X12715000Y-8485000D02*
X12685000Y-8515000D01*
X12685000Y-9560000D02*
X12715000Y-9590000D01*
X12715000Y-9560000D02*
X12685000Y-9590000D01*
X12760000Y-9135000D02*
X12790000Y-9165000D01*
X12790000Y-9135000D02*
X12760000Y-9165000D01*
X13110000Y-8885000D02*
X13140000Y-8915000D01*
X13140000Y-8885000D02*
X13110000Y-8915000D01*
X13235000Y-9510000D02*
X13265000Y-9540000D01*
X13265000Y-9510000D02*
X13235000Y-9540000D01*
X9955000Y-9990000D02*
G75*
G03*
X9915000Y-9990000I-20000J0D01*
G01*
X9915000Y-9990000D02*
G75*
G03*
X9955000Y-9990000I20000J0D01*
G01*
X10620000Y-8663750D02*
G75*
G03*
X10580000Y-8663750I-20000J0D01*
G01*
X10580000Y-8663750D02*
G75*
G03*
X10620000Y-8663750I20000J0D01*
G01*
X11620000Y-8475000D02*
G75*
G03*
X11580000Y-8475000I-20000J0D01*
G01*
X11580000Y-8475000D02*
G75*
G03*
X11620000Y-8475000I20000J0D01*
G01*
X11664958Y-8790125D02*
G75*
G03*
X11624958Y-8790125I-20000J0D01*
G01*
X11624958Y-8790125D02*
G75*
G03*
X11664958Y-8790125I20000J0D01*
G01*
X12095000Y-9450000D02*
G75*
G03*
X12055000Y-9450000I-20000J0D01*
G01*
X12055000Y-9450000D02*
G75*
G03*
X12095000Y-9450000I20000J0D01*
G01*
X12120000Y-9350000D02*
G75*
G03*
X12080000Y-9350000I-20000J0D01*
G01*
X12080000Y-9350000D02*
G75*
G03*
X12120000Y-9350000I20000J0D01*
G01*
X12145000Y-9100000D02*
G75*
G03*
X12105000Y-9100000I-20000J0D01*
G01*
X12105000Y-9100000D02*
G75*
G03*
X12145000Y-9100000I20000J0D01*
G01*
X12360000Y-9308508D02*
G75*
G03*
X12320000Y-9308508I-20000J0D01*
G01*
X12320000Y-9308508D02*
G75*
G03*
X12360000Y-9308508I20000J0D01*
G01*
X12395000Y-8775000D02*
G75*
G03*
X12355000Y-8775000I-20000J0D01*
G01*
X12355000Y-8775000D02*
G75*
G03*
X12395000Y-8775000I20000J0D01*
G01*
X12720000Y-9075000D02*
G75*
G03*
X12680000Y-9075000I-20000J0D01*
G01*
X12680000Y-9075000D02*
G75*
G03*
X12720000Y-9075000I20000J0D01*
G01*
X12970000Y-9900000D02*
G75*
G03*
X12930000Y-9900000I-20000J0D01*
G01*
X12930000Y-9900000D02*
G75*
G03*
X12970000Y-9900000I20000J0D01*
G01*
X13002500Y-8435000D02*
G75*
G03*
X12962500Y-8435000I-20000J0D01*
G01*
X12962500Y-8435000D02*
G75*
G03*
X13002500Y-8435000I20000J0D01*
G01*
X13170000Y-9272500D02*
G75*
G03*
X13130000Y-9272500I-20000J0D01*
G01*
X13130000Y-9272500D02*
G75*
G03*
X13170000Y-9272500I20000J0D01*
G01*
X10781960Y-9501420D02*
X10781960Y-9576420D01*
X10744460Y-9538920D02*
X10819460Y-9538920D01*
X10781960Y-9887500D02*
X10781960Y-9962500D01*
X10744460Y-9925000D02*
X10819460Y-9925000D01*
X11168040Y-9501420D02*
X11168040Y-9576420D01*
X11130540Y-9538920D02*
X11205540Y-9538920D01*
X10135356Y-9210356D02*
X10135356Y-9139644D01*
X10064644Y-9139644D01*
X10064644Y-9210356D01*
X10135356Y-9210356D01*
X11460356Y-8885356D02*
X11460356Y-8814644D01*
X11389644Y-8814644D01*
X11389644Y-8885356D01*
X11460356Y-8885356D01*
X11960356Y-9835356D02*
X11960356Y-9764644D01*
X11889644Y-9764644D01*
X11889644Y-9835356D01*
X11960356Y-9835356D01*
X12473356Y-10085356D02*
X12473356Y-10014644D01*
X12402644Y-10014644D01*
X12402644Y-10085356D01*
X12473356Y-10085356D01*
X12727356Y-10085356D02*
X12727356Y-10014644D01*
X12656644Y-10014644D01*
X12656644Y-10085356D01*
X12727356Y-10085356D01*
X12981356Y-10085356D02*
X12981356Y-10014644D01*
X12910644Y-10014644D01*
X12910644Y-10085356D01*
X12981356Y-10085356D01*
X13235356Y-10085356D02*
X13235356Y-10014644D01*
X13164644Y-10014644D01*
X13164644Y-10085356D01*
X13235356Y-10085356D01*
D11*
X10082277Y-10566484D02*
X10082277Y-10366484D01*
X10082277Y-10366484D02*
X10129896Y-10366484D01*
X10129896Y-10366484D02*
X10158467Y-10376008D01*
X10158467Y-10376008D02*
X10177515Y-10395055D01*
X10177515Y-10395055D02*
X10187039Y-10414103D01*
X10187039Y-10414103D02*
X10196563Y-10452198D01*
X10196563Y-10452198D02*
X10196563Y-10480770D01*
X10196563Y-10480770D02*
X10187039Y-10518865D01*
X10187039Y-10518865D02*
X10177515Y-10537912D01*
X10177515Y-10537912D02*
X10158467Y-10556960D01*
X10158467Y-10556960D02*
X10129896Y-10566484D01*
X10129896Y-10566484D02*
X10082277Y-10566484D01*
X10282277Y-10566484D02*
X10282277Y-10433150D01*
X10282277Y-10471246D02*
X10291801Y-10452198D01*
X10291801Y-10452198D02*
X10301324Y-10442674D01*
X10301324Y-10442674D02*
X10320372Y-10433150D01*
X10320372Y-10433150D02*
X10339420Y-10433150D01*
X10406086Y-10566484D02*
X10406086Y-10433150D01*
X10406086Y-10366484D02*
X10396563Y-10376008D01*
X10396563Y-10376008D02*
X10406086Y-10385531D01*
X10406086Y-10385531D02*
X10415610Y-10376008D01*
X10415610Y-10376008D02*
X10406086Y-10366484D01*
X10406086Y-10366484D02*
X10406086Y-10385531D01*
X10529896Y-10566484D02*
X10510848Y-10556960D01*
X10510848Y-10556960D02*
X10501324Y-10537912D01*
X10501324Y-10537912D02*
X10501324Y-10366484D01*
X10634658Y-10566484D02*
X10615610Y-10556960D01*
X10615610Y-10556960D02*
X10606086Y-10537912D01*
X10606086Y-10537912D02*
X10606086Y-10366484D01*
X10863229Y-10566484D02*
X10863229Y-10366484D01*
X10863229Y-10366484D02*
X10929896Y-10509341D01*
X10929896Y-10509341D02*
X10996563Y-10366484D01*
X10996563Y-10366484D02*
X10996563Y-10566484D01*
X11177515Y-10566484D02*
X11177515Y-10461722D01*
X11177515Y-10461722D02*
X11167991Y-10442674D01*
X11167991Y-10442674D02*
X11148944Y-10433150D01*
X11148944Y-10433150D02*
X11110848Y-10433150D01*
X11110848Y-10433150D02*
X11091801Y-10442674D01*
X11177515Y-10556960D02*
X11158467Y-10566484D01*
X11158467Y-10566484D02*
X11110848Y-10566484D01*
X11110848Y-10566484D02*
X11091801Y-10556960D01*
X11091801Y-10556960D02*
X11082277Y-10537912D01*
X11082277Y-10537912D02*
X11082277Y-10518865D01*
X11082277Y-10518865D02*
X11091801Y-10499817D01*
X11091801Y-10499817D02*
X11110848Y-10490293D01*
X11110848Y-10490293D02*
X11158467Y-10490293D01*
X11158467Y-10490293D02*
X11177515Y-10480770D01*
X11272753Y-10433150D02*
X11272753Y-10633150D01*
X11272753Y-10442674D02*
X11291801Y-10433150D01*
X11291801Y-10433150D02*
X11329896Y-10433150D01*
X11329896Y-10433150D02*
X11348943Y-10442674D01*
X11348943Y-10442674D02*
X11358467Y-10452198D01*
X11358467Y-10452198D02*
X11367991Y-10471246D01*
X11367991Y-10471246D02*
X11367991Y-10528389D01*
X11367991Y-10528389D02*
X11358467Y-10547436D01*
X11358467Y-10547436D02*
X11348943Y-10556960D01*
X11348943Y-10556960D02*
X11329896Y-10566484D01*
X11329896Y-10566484D02*
X11291801Y-10566484D01*
X11291801Y-10566484D02*
X11272753Y-10556960D01*
X11453705Y-10547436D02*
X11463229Y-10556960D01*
X11463229Y-10556960D02*
X11453705Y-10566484D01*
X11453705Y-10566484D02*
X11444182Y-10556960D01*
X11444182Y-10556960D02*
X11453705Y-10547436D01*
X11453705Y-10547436D02*
X11453705Y-10566484D01*
X11453705Y-10442674D02*
X11463229Y-10452198D01*
X11463229Y-10452198D02*
X11453705Y-10461722D01*
X11453705Y-10461722D02*
X11444182Y-10452198D01*
X11444182Y-10452198D02*
X11453705Y-10442674D01*
X11453705Y-10442674D02*
X11453705Y-10461722D01*
D10*
X9791500Y-10880000D02*
X9821500Y-10910000D01*
X9821500Y-10880000D02*
X9791500Y-10910000D01*
D11*
X10120372Y-10786484D02*
X10139420Y-10786484D01*
X10139420Y-10786484D02*
X10158467Y-10796008D01*
X10158467Y-10796008D02*
X10167991Y-10805531D01*
X10167991Y-10805531D02*
X10177515Y-10824579D01*
X10177515Y-10824579D02*
X10187039Y-10862674D01*
X10187039Y-10862674D02*
X10187039Y-10910293D01*
X10187039Y-10910293D02*
X10177515Y-10948389D01*
X10177515Y-10948389D02*
X10167991Y-10967436D01*
X10167991Y-10967436D02*
X10158467Y-10976960D01*
X10158467Y-10976960D02*
X10139420Y-10986484D01*
X10139420Y-10986484D02*
X10120372Y-10986484D01*
X10120372Y-10986484D02*
X10101324Y-10976960D01*
X10101324Y-10976960D02*
X10091801Y-10967436D01*
X10091801Y-10967436D02*
X10082277Y-10948389D01*
X10082277Y-10948389D02*
X10072753Y-10910293D01*
X10072753Y-10910293D02*
X10072753Y-10862674D01*
X10072753Y-10862674D02*
X10082277Y-10824579D01*
X10082277Y-10824579D02*
X10091801Y-10805531D01*
X10091801Y-10805531D02*
X10101324Y-10796008D01*
X10101324Y-10796008D02*
X10120372Y-10786484D01*
X10272753Y-10967436D02*
X10282277Y-10976960D01*
X10282277Y-10976960D02*
X10272753Y-10986484D01*
X10272753Y-10986484D02*
X10263229Y-10976960D01*
X10263229Y-10976960D02*
X10272753Y-10967436D01*
X10272753Y-10967436D02*
X10272753Y-10986484D01*
X10348944Y-10786484D02*
X10472753Y-10786484D01*
X10472753Y-10786484D02*
X10406086Y-10862674D01*
X10406086Y-10862674D02*
X10434658Y-10862674D01*
X10434658Y-10862674D02*
X10453705Y-10872198D01*
X10453705Y-10872198D02*
X10463229Y-10881722D01*
X10463229Y-10881722D02*
X10472753Y-10900770D01*
X10472753Y-10900770D02*
X10472753Y-10948389D01*
X10472753Y-10948389D02*
X10463229Y-10967436D01*
X10463229Y-10967436D02*
X10453705Y-10976960D01*
X10453705Y-10976960D02*
X10434658Y-10986484D01*
X10434658Y-10986484D02*
X10377515Y-10986484D01*
X10377515Y-10986484D02*
X10358467Y-10976960D01*
X10358467Y-10976960D02*
X10348944Y-10967436D01*
X10596563Y-10786484D02*
X10615610Y-10786484D01*
X10615610Y-10786484D02*
X10634658Y-10796008D01*
X10634658Y-10796008D02*
X10644182Y-10805531D01*
X10644182Y-10805531D02*
X10653705Y-10824579D01*
X10653705Y-10824579D02*
X10663229Y-10862674D01*
X10663229Y-10862674D02*
X10663229Y-10910293D01*
X10663229Y-10910293D02*
X10653705Y-10948389D01*
X10653705Y-10948389D02*
X10644182Y-10967436D01*
X10644182Y-10967436D02*
X10634658Y-10976960D01*
X10634658Y-10976960D02*
X10615610Y-10986484D01*
X10615610Y-10986484D02*
X10596563Y-10986484D01*
X10596563Y-10986484D02*
X10577515Y-10976960D01*
X10577515Y-10976960D02*
X10567991Y-10967436D01*
X10567991Y-10967436D02*
X10558467Y-10948389D01*
X10558467Y-10948389D02*
X10548944Y-10910293D01*
X10548944Y-10910293D02*
X10548944Y-10862674D01*
X10548944Y-10862674D02*
X10558467Y-10824579D01*
X10558467Y-10824579D02*
X10567991Y-10805531D01*
X10567991Y-10805531D02*
X10577515Y-10796008D01*
X10577515Y-10796008D02*
X10596563Y-10786484D01*
X10787039Y-10786484D02*
X10806086Y-10786484D01*
X10806086Y-10786484D02*
X10825134Y-10796008D01*
X10825134Y-10796008D02*
X10834658Y-10805531D01*
X10834658Y-10805531D02*
X10844182Y-10824579D01*
X10844182Y-10824579D02*
X10853705Y-10862674D01*
X10853705Y-10862674D02*
X10853705Y-10910293D01*
X10853705Y-10910293D02*
X10844182Y-10948389D01*
X10844182Y-10948389D02*
X10834658Y-10967436D01*
X10834658Y-10967436D02*
X10825134Y-10976960D01*
X10825134Y-10976960D02*
X10806086Y-10986484D01*
X10806086Y-10986484D02*
X10787039Y-10986484D01*
X10787039Y-10986484D02*
X10767991Y-10976960D01*
X10767991Y-10976960D02*
X10758467Y-10967436D01*
X10758467Y-10967436D02*
X10748944Y-10948389D01*
X10748944Y-10948389D02*
X10739420Y-10910293D01*
X10739420Y-10910293D02*
X10739420Y-10862674D01*
X10739420Y-10862674D02*
X10748944Y-10824579D01*
X10748944Y-10824579D02*
X10758467Y-10805531D01*
X10758467Y-10805531D02*
X10767991Y-10796008D01*
X10767991Y-10796008D02*
X10787039Y-10786484D01*
X10939420Y-10986484D02*
X10939420Y-10853150D01*
X10939420Y-10872198D02*
X10948944Y-10862674D01*
X10948944Y-10862674D02*
X10967991Y-10853150D01*
X10967991Y-10853150D02*
X10996563Y-10853150D01*
X10996563Y-10853150D02*
X11015610Y-10862674D01*
X11015610Y-10862674D02*
X11025134Y-10881722D01*
X11025134Y-10881722D02*
X11025134Y-10986484D01*
X11025134Y-10881722D02*
X11034658Y-10862674D01*
X11034658Y-10862674D02*
X11053705Y-10853150D01*
X11053705Y-10853150D02*
X11082277Y-10853150D01*
X11082277Y-10853150D02*
X11101325Y-10862674D01*
X11101325Y-10862674D02*
X11110848Y-10881722D01*
X11110848Y-10881722D02*
X11110848Y-10986484D01*
X11206086Y-10986484D02*
X11206086Y-10853150D01*
X11206086Y-10872198D02*
X11215610Y-10862674D01*
X11215610Y-10862674D02*
X11234658Y-10853150D01*
X11234658Y-10853150D02*
X11263229Y-10853150D01*
X11263229Y-10853150D02*
X11282277Y-10862674D01*
X11282277Y-10862674D02*
X11291801Y-10881722D01*
X11291801Y-10881722D02*
X11291801Y-10986484D01*
X11291801Y-10881722D02*
X11301324Y-10862674D01*
X11301324Y-10862674D02*
X11320372Y-10853150D01*
X11320372Y-10853150D02*
X11348943Y-10853150D01*
X11348943Y-10853150D02*
X11367991Y-10862674D01*
X11367991Y-10862674D02*
X11377515Y-10881722D01*
X11377515Y-10881722D02*
X11377515Y-10986484D01*
X11767991Y-10776960D02*
X11596563Y-11034103D01*
X12025134Y-10786484D02*
X12044182Y-10786484D01*
X12044182Y-10786484D02*
X12063229Y-10796008D01*
X12063229Y-10796008D02*
X12072753Y-10805531D01*
X12072753Y-10805531D02*
X12082277Y-10824579D01*
X12082277Y-10824579D02*
X12091801Y-10862674D01*
X12091801Y-10862674D02*
X12091801Y-10910293D01*
X12091801Y-10910293D02*
X12082277Y-10948389D01*
X12082277Y-10948389D02*
X12072753Y-10967436D01*
X12072753Y-10967436D02*
X12063229Y-10976960D01*
X12063229Y-10976960D02*
X12044182Y-10986484D01*
X12044182Y-10986484D02*
X12025134Y-10986484D01*
X12025134Y-10986484D02*
X12006086Y-10976960D01*
X12006086Y-10976960D02*
X11996563Y-10967436D01*
X11996563Y-10967436D02*
X11987039Y-10948389D01*
X11987039Y-10948389D02*
X11977515Y-10910293D01*
X11977515Y-10910293D02*
X11977515Y-10862674D01*
X11977515Y-10862674D02*
X11987039Y-10824579D01*
X11987039Y-10824579D02*
X11996563Y-10805531D01*
X11996563Y-10805531D02*
X12006086Y-10796008D01*
X12006086Y-10796008D02*
X12025134Y-10786484D01*
X12177515Y-10967436D02*
X12187039Y-10976960D01*
X12187039Y-10976960D02*
X12177515Y-10986484D01*
X12177515Y-10986484D02*
X12167991Y-10976960D01*
X12167991Y-10976960D02*
X12177515Y-10967436D01*
X12177515Y-10967436D02*
X12177515Y-10986484D01*
X12310848Y-10786484D02*
X12329896Y-10786484D01*
X12329896Y-10786484D02*
X12348944Y-10796008D01*
X12348944Y-10796008D02*
X12358467Y-10805531D01*
X12358467Y-10805531D02*
X12367991Y-10824579D01*
X12367991Y-10824579D02*
X12377515Y-10862674D01*
X12377515Y-10862674D02*
X12377515Y-10910293D01*
X12377515Y-10910293D02*
X12367991Y-10948389D01*
X12367991Y-10948389D02*
X12358467Y-10967436D01*
X12358467Y-10967436D02*
X12348944Y-10976960D01*
X12348944Y-10976960D02*
X12329896Y-10986484D01*
X12329896Y-10986484D02*
X12310848Y-10986484D01*
X12310848Y-10986484D02*
X12291801Y-10976960D01*
X12291801Y-10976960D02*
X12282277Y-10967436D01*
X12282277Y-10967436D02*
X12272753Y-10948389D01*
X12272753Y-10948389D02*
X12263229Y-10910293D01*
X12263229Y-10910293D02*
X12263229Y-10862674D01*
X12263229Y-10862674D02*
X12272753Y-10824579D01*
X12272753Y-10824579D02*
X12282277Y-10805531D01*
X12282277Y-10805531D02*
X12291801Y-10796008D01*
X12291801Y-10796008D02*
X12310848Y-10786484D01*
X12567991Y-10986484D02*
X12453706Y-10986484D01*
X12510848Y-10986484D02*
X12510848Y-10786484D01*
X12510848Y-10786484D02*
X12491801Y-10815055D01*
X12491801Y-10815055D02*
X12472753Y-10834103D01*
X12472753Y-10834103D02*
X12453706Y-10843627D01*
X12758467Y-10986484D02*
X12644182Y-10986484D01*
X12701325Y-10986484D02*
X12701325Y-10786484D01*
X12701325Y-10786484D02*
X12682277Y-10815055D01*
X12682277Y-10815055D02*
X12663229Y-10834103D01*
X12663229Y-10834103D02*
X12644182Y-10843627D01*
X12872753Y-10872198D02*
X12853706Y-10862674D01*
X12853706Y-10862674D02*
X12844182Y-10853150D01*
X12844182Y-10853150D02*
X12834658Y-10834103D01*
X12834658Y-10834103D02*
X12834658Y-10824579D01*
X12834658Y-10824579D02*
X12844182Y-10805531D01*
X12844182Y-10805531D02*
X12853706Y-10796008D01*
X12853706Y-10796008D02*
X12872753Y-10786484D01*
X12872753Y-10786484D02*
X12910848Y-10786484D01*
X12910848Y-10786484D02*
X12929896Y-10796008D01*
X12929896Y-10796008D02*
X12939420Y-10805531D01*
X12939420Y-10805531D02*
X12948944Y-10824579D01*
X12948944Y-10824579D02*
X12948944Y-10834103D01*
X12948944Y-10834103D02*
X12939420Y-10853150D01*
X12939420Y-10853150D02*
X12929896Y-10862674D01*
X12929896Y-10862674D02*
X12910848Y-10872198D01*
X12910848Y-10872198D02*
X12872753Y-10872198D01*
X12872753Y-10872198D02*
X12853706Y-10881722D01*
X12853706Y-10881722D02*
X12844182Y-10891246D01*
X12844182Y-10891246D02*
X12834658Y-10910293D01*
X12834658Y-10910293D02*
X12834658Y-10948389D01*
X12834658Y-10948389D02*
X12844182Y-10967436D01*
X12844182Y-10967436D02*
X12853706Y-10976960D01*
X12853706Y-10976960D02*
X12872753Y-10986484D01*
X12872753Y-10986484D02*
X12910848Y-10986484D01*
X12910848Y-10986484D02*
X12929896Y-10976960D01*
X12929896Y-10976960D02*
X12939420Y-10967436D01*
X12939420Y-10967436D02*
X12948944Y-10948389D01*
X12948944Y-10948389D02*
X12948944Y-10910293D01*
X12948944Y-10910293D02*
X12939420Y-10891246D01*
X12939420Y-10891246D02*
X12929896Y-10881722D01*
X12929896Y-10881722D02*
X12910848Y-10872198D01*
X13025134Y-10786484D02*
X13025134Y-10824579D01*
X13101325Y-10786484D02*
X13101325Y-10824579D01*
X13396563Y-11062674D02*
X13387039Y-11053150D01*
X13387039Y-11053150D02*
X13367991Y-11024579D01*
X13367991Y-11024579D02*
X13358468Y-11005531D01*
X13358468Y-11005531D02*
X13348944Y-10976960D01*
X13348944Y-10976960D02*
X13339420Y-10929341D01*
X13339420Y-10929341D02*
X13339420Y-10891246D01*
X13339420Y-10891246D02*
X13348944Y-10843627D01*
X13348944Y-10843627D02*
X13358468Y-10815055D01*
X13358468Y-10815055D02*
X13367991Y-10796008D01*
X13367991Y-10796008D02*
X13387039Y-10767436D01*
X13387039Y-10767436D02*
X13396563Y-10757912D01*
X13577515Y-10986484D02*
X13463229Y-10986484D01*
X13520372Y-10986484D02*
X13520372Y-10786484D01*
X13520372Y-10786484D02*
X13501325Y-10815055D01*
X13501325Y-10815055D02*
X13482277Y-10834103D01*
X13482277Y-10834103D02*
X13463229Y-10843627D01*
X13691801Y-10872198D02*
X13672753Y-10862674D01*
X13672753Y-10862674D02*
X13663229Y-10853150D01*
X13663229Y-10853150D02*
X13653706Y-10834103D01*
X13653706Y-10834103D02*
X13653706Y-10824579D01*
X13653706Y-10824579D02*
X13663229Y-10805531D01*
X13663229Y-10805531D02*
X13672753Y-10796008D01*
X13672753Y-10796008D02*
X13691801Y-10786484D01*
X13691801Y-10786484D02*
X13729896Y-10786484D01*
X13729896Y-10786484D02*
X13748944Y-10796008D01*
X13748944Y-10796008D02*
X13758468Y-10805531D01*
X13758468Y-10805531D02*
X13767991Y-10824579D01*
X13767991Y-10824579D02*
X13767991Y-10834103D01*
X13767991Y-10834103D02*
X13758468Y-10853150D01*
X13758468Y-10853150D02*
X13748944Y-10862674D01*
X13748944Y-10862674D02*
X13729896Y-10872198D01*
X13729896Y-10872198D02*
X13691801Y-10872198D01*
X13691801Y-10872198D02*
X13672753Y-10881722D01*
X13672753Y-10881722D02*
X13663229Y-10891246D01*
X13663229Y-10891246D02*
X13653706Y-10910293D01*
X13653706Y-10910293D02*
X13653706Y-10948389D01*
X13653706Y-10948389D02*
X13663229Y-10967436D01*
X13663229Y-10967436D02*
X13672753Y-10976960D01*
X13672753Y-10976960D02*
X13691801Y-10986484D01*
X13691801Y-10986484D02*
X13729896Y-10986484D01*
X13729896Y-10986484D02*
X13748944Y-10976960D01*
X13748944Y-10976960D02*
X13758468Y-10967436D01*
X13758468Y-10967436D02*
X13767991Y-10948389D01*
X13767991Y-10948389D02*
X13767991Y-10910293D01*
X13767991Y-10910293D02*
X13758468Y-10891246D01*
X13758468Y-10891246D02*
X13748944Y-10881722D01*
X13748944Y-10881722D02*
X13729896Y-10872198D01*
X14006087Y-10986484D02*
X14006087Y-10786484D01*
X14091801Y-10986484D02*
X14091801Y-10881722D01*
X14091801Y-10881722D02*
X14082277Y-10862674D01*
X14082277Y-10862674D02*
X14063230Y-10853150D01*
X14063230Y-10853150D02*
X14034658Y-10853150D01*
X14034658Y-10853150D02*
X14015610Y-10862674D01*
X14015610Y-10862674D02*
X14006087Y-10872198D01*
X14215610Y-10986484D02*
X14196563Y-10976960D01*
X14196563Y-10976960D02*
X14187039Y-10967436D01*
X14187039Y-10967436D02*
X14177515Y-10948389D01*
X14177515Y-10948389D02*
X14177515Y-10891246D01*
X14177515Y-10891246D02*
X14187039Y-10872198D01*
X14187039Y-10872198D02*
X14196563Y-10862674D01*
X14196563Y-10862674D02*
X14215610Y-10853150D01*
X14215610Y-10853150D02*
X14244182Y-10853150D01*
X14244182Y-10853150D02*
X14263230Y-10862674D01*
X14263230Y-10862674D02*
X14272753Y-10872198D01*
X14272753Y-10872198D02*
X14282277Y-10891246D01*
X14282277Y-10891246D02*
X14282277Y-10948389D01*
X14282277Y-10948389D02*
X14272753Y-10967436D01*
X14272753Y-10967436D02*
X14263230Y-10976960D01*
X14263230Y-10976960D02*
X14244182Y-10986484D01*
X14244182Y-10986484D02*
X14215610Y-10986484D01*
X14396563Y-10986484D02*
X14377515Y-10976960D01*
X14377515Y-10976960D02*
X14367991Y-10957912D01*
X14367991Y-10957912D02*
X14367991Y-10786484D01*
X14548944Y-10976960D02*
X14529896Y-10986484D01*
X14529896Y-10986484D02*
X14491801Y-10986484D01*
X14491801Y-10986484D02*
X14472753Y-10976960D01*
X14472753Y-10976960D02*
X14463230Y-10957912D01*
X14463230Y-10957912D02*
X14463230Y-10881722D01*
X14463230Y-10881722D02*
X14472753Y-10862674D01*
X14472753Y-10862674D02*
X14491801Y-10853150D01*
X14491801Y-10853150D02*
X14529896Y-10853150D01*
X14529896Y-10853150D02*
X14548944Y-10862674D01*
X14548944Y-10862674D02*
X14558468Y-10881722D01*
X14558468Y-10881722D02*
X14558468Y-10900770D01*
X14558468Y-10900770D02*
X14463230Y-10919817D01*
X14634658Y-10976960D02*
X14653706Y-10986484D01*
X14653706Y-10986484D02*
X14691801Y-10986484D01*
X14691801Y-10986484D02*
X14710849Y-10976960D01*
X14710849Y-10976960D02*
X14720372Y-10957912D01*
X14720372Y-10957912D02*
X14720372Y-10948389D01*
X14720372Y-10948389D02*
X14710849Y-10929341D01*
X14710849Y-10929341D02*
X14691801Y-10919817D01*
X14691801Y-10919817D02*
X14663230Y-10919817D01*
X14663230Y-10919817D02*
X14644182Y-10910293D01*
X14644182Y-10910293D02*
X14634658Y-10891246D01*
X14634658Y-10891246D02*
X14634658Y-10881722D01*
X14634658Y-10881722D02*
X14644182Y-10862674D01*
X14644182Y-10862674D02*
X14663230Y-10853150D01*
X14663230Y-10853150D02*
X14691801Y-10853150D01*
X14691801Y-10853150D02*
X14710849Y-10862674D01*
X14787039Y-11062674D02*
X14796563Y-11053150D01*
X14796563Y-11053150D02*
X14815611Y-11024579D01*
X14815611Y-11024579D02*
X14825134Y-11005531D01*
X14825134Y-11005531D02*
X14834658Y-10976960D01*
X14834658Y-10976960D02*
X14844182Y-10929341D01*
X14844182Y-10929341D02*
X14844182Y-10891246D01*
X14844182Y-10891246D02*
X14834658Y-10843627D01*
X14834658Y-10843627D02*
X14825134Y-10815055D01*
X14825134Y-10815055D02*
X14815611Y-10796008D01*
X14815611Y-10796008D02*
X14796563Y-10767436D01*
X14796563Y-10767436D02*
X14787039Y-10757912D01*
D10*
X9821500Y-11159000D02*
G75*
G03*
X9781500Y-11159000I-20000J0D01*
G01*
X9781500Y-11159000D02*
G75*
G03*
X9821500Y-11159000I20000J0D01*
G01*
D11*
X10120372Y-11050484D02*
X10139420Y-11050484D01*
X10139420Y-11050484D02*
X10158467Y-11060008D01*
X10158467Y-11060008D02*
X10167991Y-11069531D01*
X10167991Y-11069531D02*
X10177515Y-11088579D01*
X10177515Y-11088579D02*
X10187039Y-11126674D01*
X10187039Y-11126674D02*
X10187039Y-11174293D01*
X10187039Y-11174293D02*
X10177515Y-11212388D01*
X10177515Y-11212388D02*
X10167991Y-11231436D01*
X10167991Y-11231436D02*
X10158467Y-11240960D01*
X10158467Y-11240960D02*
X10139420Y-11250484D01*
X10139420Y-11250484D02*
X10120372Y-11250484D01*
X10120372Y-11250484D02*
X10101324Y-11240960D01*
X10101324Y-11240960D02*
X10091801Y-11231436D01*
X10091801Y-11231436D02*
X10082277Y-11212388D01*
X10082277Y-11212388D02*
X10072753Y-11174293D01*
X10072753Y-11174293D02*
X10072753Y-11126674D01*
X10072753Y-11126674D02*
X10082277Y-11088579D01*
X10082277Y-11088579D02*
X10091801Y-11069531D01*
X10091801Y-11069531D02*
X10101324Y-11060008D01*
X10101324Y-11060008D02*
X10120372Y-11050484D01*
X10272753Y-11231436D02*
X10282277Y-11240960D01*
X10282277Y-11240960D02*
X10272753Y-11250484D01*
X10272753Y-11250484D02*
X10263229Y-11240960D01*
X10263229Y-11240960D02*
X10272753Y-11231436D01*
X10272753Y-11231436D02*
X10272753Y-11250484D01*
X10453705Y-11117150D02*
X10453705Y-11250484D01*
X10406086Y-11040960D02*
X10358467Y-11183817D01*
X10358467Y-11183817D02*
X10482277Y-11183817D01*
X10596563Y-11050484D02*
X10615610Y-11050484D01*
X10615610Y-11050484D02*
X10634658Y-11060008D01*
X10634658Y-11060008D02*
X10644182Y-11069531D01*
X10644182Y-11069531D02*
X10653705Y-11088579D01*
X10653705Y-11088579D02*
X10663229Y-11126674D01*
X10663229Y-11126674D02*
X10663229Y-11174293D01*
X10663229Y-11174293D02*
X10653705Y-11212388D01*
X10653705Y-11212388D02*
X10644182Y-11231436D01*
X10644182Y-11231436D02*
X10634658Y-11240960D01*
X10634658Y-11240960D02*
X10615610Y-11250484D01*
X10615610Y-11250484D02*
X10596563Y-11250484D01*
X10596563Y-11250484D02*
X10577515Y-11240960D01*
X10577515Y-11240960D02*
X10567991Y-11231436D01*
X10567991Y-11231436D02*
X10558467Y-11212388D01*
X10558467Y-11212388D02*
X10548944Y-11174293D01*
X10548944Y-11174293D02*
X10548944Y-11126674D01*
X10548944Y-11126674D02*
X10558467Y-11088579D01*
X10558467Y-11088579D02*
X10567991Y-11069531D01*
X10567991Y-11069531D02*
X10577515Y-11060008D01*
X10577515Y-11060008D02*
X10596563Y-11050484D01*
X10787039Y-11050484D02*
X10806086Y-11050484D01*
X10806086Y-11050484D02*
X10825134Y-11060008D01*
X10825134Y-11060008D02*
X10834658Y-11069531D01*
X10834658Y-11069531D02*
X10844182Y-11088579D01*
X10844182Y-11088579D02*
X10853705Y-11126674D01*
X10853705Y-11126674D02*
X10853705Y-11174293D01*
X10853705Y-11174293D02*
X10844182Y-11212388D01*
X10844182Y-11212388D02*
X10834658Y-11231436D01*
X10834658Y-11231436D02*
X10825134Y-11240960D01*
X10825134Y-11240960D02*
X10806086Y-11250484D01*
X10806086Y-11250484D02*
X10787039Y-11250484D01*
X10787039Y-11250484D02*
X10767991Y-11240960D01*
X10767991Y-11240960D02*
X10758467Y-11231436D01*
X10758467Y-11231436D02*
X10748944Y-11212388D01*
X10748944Y-11212388D02*
X10739420Y-11174293D01*
X10739420Y-11174293D02*
X10739420Y-11126674D01*
X10739420Y-11126674D02*
X10748944Y-11088579D01*
X10748944Y-11088579D02*
X10758467Y-11069531D01*
X10758467Y-11069531D02*
X10767991Y-11060008D01*
X10767991Y-11060008D02*
X10787039Y-11050484D01*
X10939420Y-11250484D02*
X10939420Y-11117150D01*
X10939420Y-11136198D02*
X10948944Y-11126674D01*
X10948944Y-11126674D02*
X10967991Y-11117150D01*
X10967991Y-11117150D02*
X10996563Y-11117150D01*
X10996563Y-11117150D02*
X11015610Y-11126674D01*
X11015610Y-11126674D02*
X11025134Y-11145722D01*
X11025134Y-11145722D02*
X11025134Y-11250484D01*
X11025134Y-11145722D02*
X11034658Y-11126674D01*
X11034658Y-11126674D02*
X11053705Y-11117150D01*
X11053705Y-11117150D02*
X11082277Y-11117150D01*
X11082277Y-11117150D02*
X11101325Y-11126674D01*
X11101325Y-11126674D02*
X11110848Y-11145722D01*
X11110848Y-11145722D02*
X11110848Y-11250484D01*
X11206086Y-11250484D02*
X11206086Y-11117150D01*
X11206086Y-11136198D02*
X11215610Y-11126674D01*
X11215610Y-11126674D02*
X11234658Y-11117150D01*
X11234658Y-11117150D02*
X11263229Y-11117150D01*
X11263229Y-11117150D02*
X11282277Y-11126674D01*
X11282277Y-11126674D02*
X11291801Y-11145722D01*
X11291801Y-11145722D02*
X11291801Y-11250484D01*
X11291801Y-11145722D02*
X11301324Y-11126674D01*
X11301324Y-11126674D02*
X11320372Y-11117150D01*
X11320372Y-11117150D02*
X11348943Y-11117150D01*
X11348943Y-11117150D02*
X11367991Y-11126674D01*
X11367991Y-11126674D02*
X11377515Y-11145722D01*
X11377515Y-11145722D02*
X11377515Y-11250484D01*
X11767991Y-11040960D02*
X11596563Y-11298103D01*
X12025134Y-11050484D02*
X12044182Y-11050484D01*
X12044182Y-11050484D02*
X12063229Y-11060008D01*
X12063229Y-11060008D02*
X12072753Y-11069531D01*
X12072753Y-11069531D02*
X12082277Y-11088579D01*
X12082277Y-11088579D02*
X12091801Y-11126674D01*
X12091801Y-11126674D02*
X12091801Y-11174293D01*
X12091801Y-11174293D02*
X12082277Y-11212388D01*
X12082277Y-11212388D02*
X12072753Y-11231436D01*
X12072753Y-11231436D02*
X12063229Y-11240960D01*
X12063229Y-11240960D02*
X12044182Y-11250484D01*
X12044182Y-11250484D02*
X12025134Y-11250484D01*
X12025134Y-11250484D02*
X12006086Y-11240960D01*
X12006086Y-11240960D02*
X11996563Y-11231436D01*
X11996563Y-11231436D02*
X11987039Y-11212388D01*
X11987039Y-11212388D02*
X11977515Y-11174293D01*
X11977515Y-11174293D02*
X11977515Y-11126674D01*
X11977515Y-11126674D02*
X11987039Y-11088579D01*
X11987039Y-11088579D02*
X11996563Y-11069531D01*
X11996563Y-11069531D02*
X12006086Y-11060008D01*
X12006086Y-11060008D02*
X12025134Y-11050484D01*
X12177515Y-11231436D02*
X12187039Y-11240960D01*
X12187039Y-11240960D02*
X12177515Y-11250484D01*
X12177515Y-11250484D02*
X12167991Y-11240960D01*
X12167991Y-11240960D02*
X12177515Y-11231436D01*
X12177515Y-11231436D02*
X12177515Y-11250484D01*
X12310848Y-11050484D02*
X12329896Y-11050484D01*
X12329896Y-11050484D02*
X12348944Y-11060008D01*
X12348944Y-11060008D02*
X12358467Y-11069531D01*
X12358467Y-11069531D02*
X12367991Y-11088579D01*
X12367991Y-11088579D02*
X12377515Y-11126674D01*
X12377515Y-11126674D02*
X12377515Y-11174293D01*
X12377515Y-11174293D02*
X12367991Y-11212388D01*
X12367991Y-11212388D02*
X12358467Y-11231436D01*
X12358467Y-11231436D02*
X12348944Y-11240960D01*
X12348944Y-11240960D02*
X12329896Y-11250484D01*
X12329896Y-11250484D02*
X12310848Y-11250484D01*
X12310848Y-11250484D02*
X12291801Y-11240960D01*
X12291801Y-11240960D02*
X12282277Y-11231436D01*
X12282277Y-11231436D02*
X12272753Y-11212388D01*
X12272753Y-11212388D02*
X12263229Y-11174293D01*
X12263229Y-11174293D02*
X12263229Y-11126674D01*
X12263229Y-11126674D02*
X12272753Y-11088579D01*
X12272753Y-11088579D02*
X12282277Y-11069531D01*
X12282277Y-11069531D02*
X12291801Y-11060008D01*
X12291801Y-11060008D02*
X12310848Y-11050484D01*
X12567991Y-11250484D02*
X12453706Y-11250484D01*
X12510848Y-11250484D02*
X12510848Y-11050484D01*
X12510848Y-11050484D02*
X12491801Y-11079055D01*
X12491801Y-11079055D02*
X12472753Y-11098103D01*
X12472753Y-11098103D02*
X12453706Y-11107627D01*
X12748944Y-11050484D02*
X12653706Y-11050484D01*
X12653706Y-11050484D02*
X12644182Y-11145722D01*
X12644182Y-11145722D02*
X12653706Y-11136198D01*
X12653706Y-11136198D02*
X12672753Y-11126674D01*
X12672753Y-11126674D02*
X12720372Y-11126674D01*
X12720372Y-11126674D02*
X12739420Y-11136198D01*
X12739420Y-11136198D02*
X12748944Y-11145722D01*
X12748944Y-11145722D02*
X12758467Y-11164770D01*
X12758467Y-11164770D02*
X12758467Y-11212388D01*
X12758467Y-11212388D02*
X12748944Y-11231436D01*
X12748944Y-11231436D02*
X12739420Y-11240960D01*
X12739420Y-11240960D02*
X12720372Y-11250484D01*
X12720372Y-11250484D02*
X12672753Y-11250484D01*
X12672753Y-11250484D02*
X12653706Y-11240960D01*
X12653706Y-11240960D02*
X12644182Y-11231436D01*
X12825134Y-11050484D02*
X12958467Y-11050484D01*
X12958467Y-11050484D02*
X12872753Y-11250484D01*
X13025134Y-11050484D02*
X13025134Y-11088579D01*
X13101325Y-11050484D02*
X13101325Y-11088579D01*
X13396563Y-11326674D02*
X13387039Y-11317150D01*
X13387039Y-11317150D02*
X13367991Y-11288579D01*
X13367991Y-11288579D02*
X13358468Y-11269531D01*
X13358468Y-11269531D02*
X13348944Y-11240960D01*
X13348944Y-11240960D02*
X13339420Y-11193341D01*
X13339420Y-11193341D02*
X13339420Y-11155246D01*
X13339420Y-11155246D02*
X13348944Y-11107627D01*
X13348944Y-11107627D02*
X13358468Y-11079055D01*
X13358468Y-11079055D02*
X13367991Y-11060008D01*
X13367991Y-11060008D02*
X13387039Y-11031436D01*
X13387039Y-11031436D02*
X13396563Y-11021912D01*
X13577515Y-11250484D02*
X13463229Y-11250484D01*
X13520372Y-11250484D02*
X13520372Y-11050484D01*
X13520372Y-11050484D02*
X13501325Y-11079055D01*
X13501325Y-11079055D02*
X13482277Y-11098103D01*
X13482277Y-11098103D02*
X13463229Y-11107627D01*
X13644182Y-11050484D02*
X13767991Y-11050484D01*
X13767991Y-11050484D02*
X13701325Y-11126674D01*
X13701325Y-11126674D02*
X13729896Y-11126674D01*
X13729896Y-11126674D02*
X13748944Y-11136198D01*
X13748944Y-11136198D02*
X13758468Y-11145722D01*
X13758468Y-11145722D02*
X13767991Y-11164770D01*
X13767991Y-11164770D02*
X13767991Y-11212388D01*
X13767991Y-11212388D02*
X13758468Y-11231436D01*
X13758468Y-11231436D02*
X13748944Y-11240960D01*
X13748944Y-11240960D02*
X13729896Y-11250484D01*
X13729896Y-11250484D02*
X13672753Y-11250484D01*
X13672753Y-11250484D02*
X13653706Y-11240960D01*
X13653706Y-11240960D02*
X13644182Y-11231436D01*
X14006087Y-11250484D02*
X14006087Y-11050484D01*
X14091801Y-11250484D02*
X14091801Y-11145722D01*
X14091801Y-11145722D02*
X14082277Y-11126674D01*
X14082277Y-11126674D02*
X14063230Y-11117150D01*
X14063230Y-11117150D02*
X14034658Y-11117150D01*
X14034658Y-11117150D02*
X14015610Y-11126674D01*
X14015610Y-11126674D02*
X14006087Y-11136198D01*
X14215610Y-11250484D02*
X14196563Y-11240960D01*
X14196563Y-11240960D02*
X14187039Y-11231436D01*
X14187039Y-11231436D02*
X14177515Y-11212388D01*
X14177515Y-11212388D02*
X14177515Y-11155246D01*
X14177515Y-11155246D02*
X14187039Y-11136198D01*
X14187039Y-11136198D02*
X14196563Y-11126674D01*
X14196563Y-11126674D02*
X14215610Y-11117150D01*
X14215610Y-11117150D02*
X14244182Y-11117150D01*
X14244182Y-11117150D02*
X14263230Y-11126674D01*
X14263230Y-11126674D02*
X14272753Y-11136198D01*
X14272753Y-11136198D02*
X14282277Y-11155246D01*
X14282277Y-11155246D02*
X14282277Y-11212388D01*
X14282277Y-11212388D02*
X14272753Y-11231436D01*
X14272753Y-11231436D02*
X14263230Y-11240960D01*
X14263230Y-11240960D02*
X14244182Y-11250484D01*
X14244182Y-11250484D02*
X14215610Y-11250484D01*
X14396563Y-11250484D02*
X14377515Y-11240960D01*
X14377515Y-11240960D02*
X14367991Y-11221912D01*
X14367991Y-11221912D02*
X14367991Y-11050484D01*
X14548944Y-11240960D02*
X14529896Y-11250484D01*
X14529896Y-11250484D02*
X14491801Y-11250484D01*
X14491801Y-11250484D02*
X14472753Y-11240960D01*
X14472753Y-11240960D02*
X14463230Y-11221912D01*
X14463230Y-11221912D02*
X14463230Y-11145722D01*
X14463230Y-11145722D02*
X14472753Y-11126674D01*
X14472753Y-11126674D02*
X14491801Y-11117150D01*
X14491801Y-11117150D02*
X14529896Y-11117150D01*
X14529896Y-11117150D02*
X14548944Y-11126674D01*
X14548944Y-11126674D02*
X14558468Y-11145722D01*
X14558468Y-11145722D02*
X14558468Y-11164770D01*
X14558468Y-11164770D02*
X14463230Y-11183817D01*
X14634658Y-11240960D02*
X14653706Y-11250484D01*
X14653706Y-11250484D02*
X14691801Y-11250484D01*
X14691801Y-11250484D02*
X14710849Y-11240960D01*
X14710849Y-11240960D02*
X14720372Y-11221912D01*
X14720372Y-11221912D02*
X14720372Y-11212388D01*
X14720372Y-11212388D02*
X14710849Y-11193341D01*
X14710849Y-11193341D02*
X14691801Y-11183817D01*
X14691801Y-11183817D02*
X14663230Y-11183817D01*
X14663230Y-11183817D02*
X14644182Y-11174293D01*
X14644182Y-11174293D02*
X14634658Y-11155246D01*
X14634658Y-11155246D02*
X14634658Y-11145722D01*
X14634658Y-11145722D02*
X14644182Y-11126674D01*
X14644182Y-11126674D02*
X14663230Y-11117150D01*
X14663230Y-11117150D02*
X14691801Y-11117150D01*
X14691801Y-11117150D02*
X14710849Y-11126674D01*
X14787039Y-11326674D02*
X14796563Y-11317150D01*
X14796563Y-11317150D02*
X14815611Y-11288579D01*
X14815611Y-11288579D02*
X14825134Y-11269531D01*
X14825134Y-11269531D02*
X14834658Y-11240960D01*
X14834658Y-11240960D02*
X14844182Y-11193341D01*
X14844182Y-11193341D02*
X14844182Y-11155246D01*
X14844182Y-11155246D02*
X14834658Y-11107627D01*
X14834658Y-11107627D02*
X14825134Y-11079055D01*
X14825134Y-11079055D02*
X14815611Y-11060008D01*
X14815611Y-11060008D02*
X14796563Y-11031436D01*
X14796563Y-11031436D02*
X14787039Y-11021912D01*
D10*
X9784000Y-11385500D02*
X9784000Y-11460500D01*
X9746500Y-11423000D02*
X9821500Y-11423000D01*
D11*
X10120372Y-11314484D02*
X10139420Y-11314484D01*
X10139420Y-11314484D02*
X10158467Y-11324008D01*
X10158467Y-11324008D02*
X10167991Y-11333531D01*
X10167991Y-11333531D02*
X10177515Y-11352579D01*
X10177515Y-11352579D02*
X10187039Y-11390674D01*
X10187039Y-11390674D02*
X10187039Y-11438293D01*
X10187039Y-11438293D02*
X10177515Y-11476388D01*
X10177515Y-11476388D02*
X10167991Y-11495436D01*
X10167991Y-11495436D02*
X10158467Y-11504960D01*
X10158467Y-11504960D02*
X10139420Y-11514484D01*
X10139420Y-11514484D02*
X10120372Y-11514484D01*
X10120372Y-11514484D02*
X10101324Y-11504960D01*
X10101324Y-11504960D02*
X10091801Y-11495436D01*
X10091801Y-11495436D02*
X10082277Y-11476388D01*
X10082277Y-11476388D02*
X10072753Y-11438293D01*
X10072753Y-11438293D02*
X10072753Y-11390674D01*
X10072753Y-11390674D02*
X10082277Y-11352579D01*
X10082277Y-11352579D02*
X10091801Y-11333531D01*
X10091801Y-11333531D02*
X10101324Y-11324008D01*
X10101324Y-11324008D02*
X10120372Y-11314484D01*
X10272753Y-11495436D02*
X10282277Y-11504960D01*
X10282277Y-11504960D02*
X10272753Y-11514484D01*
X10272753Y-11514484D02*
X10263229Y-11504960D01*
X10263229Y-11504960D02*
X10272753Y-11495436D01*
X10272753Y-11495436D02*
X10272753Y-11514484D01*
X10348944Y-11314484D02*
X10482277Y-11314484D01*
X10482277Y-11314484D02*
X10396563Y-11514484D01*
X10653705Y-11314484D02*
X10558467Y-11314484D01*
X10558467Y-11314484D02*
X10548944Y-11409722D01*
X10548944Y-11409722D02*
X10558467Y-11400198D01*
X10558467Y-11400198D02*
X10577515Y-11390674D01*
X10577515Y-11390674D02*
X10625134Y-11390674D01*
X10625134Y-11390674D02*
X10644182Y-11400198D01*
X10644182Y-11400198D02*
X10653705Y-11409722D01*
X10653705Y-11409722D02*
X10663229Y-11428769D01*
X10663229Y-11428769D02*
X10663229Y-11476388D01*
X10663229Y-11476388D02*
X10653705Y-11495436D01*
X10653705Y-11495436D02*
X10644182Y-11504960D01*
X10644182Y-11504960D02*
X10625134Y-11514484D01*
X10625134Y-11514484D02*
X10577515Y-11514484D01*
X10577515Y-11514484D02*
X10558467Y-11504960D01*
X10558467Y-11504960D02*
X10548944Y-11495436D01*
X10787039Y-11314484D02*
X10806086Y-11314484D01*
X10806086Y-11314484D02*
X10825134Y-11324008D01*
X10825134Y-11324008D02*
X10834658Y-11333531D01*
X10834658Y-11333531D02*
X10844182Y-11352579D01*
X10844182Y-11352579D02*
X10853705Y-11390674D01*
X10853705Y-11390674D02*
X10853705Y-11438293D01*
X10853705Y-11438293D02*
X10844182Y-11476388D01*
X10844182Y-11476388D02*
X10834658Y-11495436D01*
X10834658Y-11495436D02*
X10825134Y-11504960D01*
X10825134Y-11504960D02*
X10806086Y-11514484D01*
X10806086Y-11514484D02*
X10787039Y-11514484D01*
X10787039Y-11514484D02*
X10767991Y-11504960D01*
X10767991Y-11504960D02*
X10758467Y-11495436D01*
X10758467Y-11495436D02*
X10748944Y-11476388D01*
X10748944Y-11476388D02*
X10739420Y-11438293D01*
X10739420Y-11438293D02*
X10739420Y-11390674D01*
X10739420Y-11390674D02*
X10748944Y-11352579D01*
X10748944Y-11352579D02*
X10758467Y-11333531D01*
X10758467Y-11333531D02*
X10767991Y-11324008D01*
X10767991Y-11324008D02*
X10787039Y-11314484D01*
X10939420Y-11514484D02*
X10939420Y-11381150D01*
X10939420Y-11400198D02*
X10948944Y-11390674D01*
X10948944Y-11390674D02*
X10967991Y-11381150D01*
X10967991Y-11381150D02*
X10996563Y-11381150D01*
X10996563Y-11381150D02*
X11015610Y-11390674D01*
X11015610Y-11390674D02*
X11025134Y-11409722D01*
X11025134Y-11409722D02*
X11025134Y-11514484D01*
X11025134Y-11409722D02*
X11034658Y-11390674D01*
X11034658Y-11390674D02*
X11053705Y-11381150D01*
X11053705Y-11381150D02*
X11082277Y-11381150D01*
X11082277Y-11381150D02*
X11101325Y-11390674D01*
X11101325Y-11390674D02*
X11110848Y-11409722D01*
X11110848Y-11409722D02*
X11110848Y-11514484D01*
X11206086Y-11514484D02*
X11206086Y-11381150D01*
X11206086Y-11400198D02*
X11215610Y-11390674D01*
X11215610Y-11390674D02*
X11234658Y-11381150D01*
X11234658Y-11381150D02*
X11263229Y-11381150D01*
X11263229Y-11381150D02*
X11282277Y-11390674D01*
X11282277Y-11390674D02*
X11291801Y-11409722D01*
X11291801Y-11409722D02*
X11291801Y-11514484D01*
X11291801Y-11409722D02*
X11301324Y-11390674D01*
X11301324Y-11390674D02*
X11320372Y-11381150D01*
X11320372Y-11381150D02*
X11348943Y-11381150D01*
X11348943Y-11381150D02*
X11367991Y-11390674D01*
X11367991Y-11390674D02*
X11377515Y-11409722D01*
X11377515Y-11409722D02*
X11377515Y-11514484D01*
X11767991Y-11304960D02*
X11596563Y-11562103D01*
X12025134Y-11314484D02*
X12044182Y-11314484D01*
X12044182Y-11314484D02*
X12063229Y-11324008D01*
X12063229Y-11324008D02*
X12072753Y-11333531D01*
X12072753Y-11333531D02*
X12082277Y-11352579D01*
X12082277Y-11352579D02*
X12091801Y-11390674D01*
X12091801Y-11390674D02*
X12091801Y-11438293D01*
X12091801Y-11438293D02*
X12082277Y-11476388D01*
X12082277Y-11476388D02*
X12072753Y-11495436D01*
X12072753Y-11495436D02*
X12063229Y-11504960D01*
X12063229Y-11504960D02*
X12044182Y-11514484D01*
X12044182Y-11514484D02*
X12025134Y-11514484D01*
X12025134Y-11514484D02*
X12006086Y-11504960D01*
X12006086Y-11504960D02*
X11996563Y-11495436D01*
X11996563Y-11495436D02*
X11987039Y-11476388D01*
X11987039Y-11476388D02*
X11977515Y-11438293D01*
X11977515Y-11438293D02*
X11977515Y-11390674D01*
X11977515Y-11390674D02*
X11987039Y-11352579D01*
X11987039Y-11352579D02*
X11996563Y-11333531D01*
X11996563Y-11333531D02*
X12006086Y-11324008D01*
X12006086Y-11324008D02*
X12025134Y-11314484D01*
X12177515Y-11495436D02*
X12187039Y-11504960D01*
X12187039Y-11504960D02*
X12177515Y-11514484D01*
X12177515Y-11514484D02*
X12167991Y-11504960D01*
X12167991Y-11504960D02*
X12177515Y-11495436D01*
X12177515Y-11495436D02*
X12177515Y-11514484D01*
X12310848Y-11314484D02*
X12329896Y-11314484D01*
X12329896Y-11314484D02*
X12348944Y-11324008D01*
X12348944Y-11324008D02*
X12358467Y-11333531D01*
X12358467Y-11333531D02*
X12367991Y-11352579D01*
X12367991Y-11352579D02*
X12377515Y-11390674D01*
X12377515Y-11390674D02*
X12377515Y-11438293D01*
X12377515Y-11438293D02*
X12367991Y-11476388D01*
X12367991Y-11476388D02*
X12358467Y-11495436D01*
X12358467Y-11495436D02*
X12348944Y-11504960D01*
X12348944Y-11504960D02*
X12329896Y-11514484D01*
X12329896Y-11514484D02*
X12310848Y-11514484D01*
X12310848Y-11514484D02*
X12291801Y-11504960D01*
X12291801Y-11504960D02*
X12282277Y-11495436D01*
X12282277Y-11495436D02*
X12272753Y-11476388D01*
X12272753Y-11476388D02*
X12263229Y-11438293D01*
X12263229Y-11438293D02*
X12263229Y-11390674D01*
X12263229Y-11390674D02*
X12272753Y-11352579D01*
X12272753Y-11352579D02*
X12282277Y-11333531D01*
X12282277Y-11333531D02*
X12291801Y-11324008D01*
X12291801Y-11324008D02*
X12310848Y-11314484D01*
X12453706Y-11333531D02*
X12463229Y-11324008D01*
X12463229Y-11324008D02*
X12482277Y-11314484D01*
X12482277Y-11314484D02*
X12529896Y-11314484D01*
X12529896Y-11314484D02*
X12548944Y-11324008D01*
X12548944Y-11324008D02*
X12558467Y-11333531D01*
X12558467Y-11333531D02*
X12567991Y-11352579D01*
X12567991Y-11352579D02*
X12567991Y-11371627D01*
X12567991Y-11371627D02*
X12558467Y-11400198D01*
X12558467Y-11400198D02*
X12444182Y-11514484D01*
X12444182Y-11514484D02*
X12567991Y-11514484D01*
X12663229Y-11514484D02*
X12701325Y-11514484D01*
X12701325Y-11514484D02*
X12720372Y-11504960D01*
X12720372Y-11504960D02*
X12729896Y-11495436D01*
X12729896Y-11495436D02*
X12748944Y-11466865D01*
X12748944Y-11466865D02*
X12758467Y-11428769D01*
X12758467Y-11428769D02*
X12758467Y-11352579D01*
X12758467Y-11352579D02*
X12748944Y-11333531D01*
X12748944Y-11333531D02*
X12739420Y-11324008D01*
X12739420Y-11324008D02*
X12720372Y-11314484D01*
X12720372Y-11314484D02*
X12682277Y-11314484D01*
X12682277Y-11314484D02*
X12663229Y-11324008D01*
X12663229Y-11324008D02*
X12653706Y-11333531D01*
X12653706Y-11333531D02*
X12644182Y-11352579D01*
X12644182Y-11352579D02*
X12644182Y-11400198D01*
X12644182Y-11400198D02*
X12653706Y-11419246D01*
X12653706Y-11419246D02*
X12663229Y-11428769D01*
X12663229Y-11428769D02*
X12682277Y-11438293D01*
X12682277Y-11438293D02*
X12720372Y-11438293D01*
X12720372Y-11438293D02*
X12739420Y-11428769D01*
X12739420Y-11428769D02*
X12748944Y-11419246D01*
X12748944Y-11419246D02*
X12758467Y-11400198D01*
X12939420Y-11314484D02*
X12844182Y-11314484D01*
X12844182Y-11314484D02*
X12834658Y-11409722D01*
X12834658Y-11409722D02*
X12844182Y-11400198D01*
X12844182Y-11400198D02*
X12863229Y-11390674D01*
X12863229Y-11390674D02*
X12910848Y-11390674D01*
X12910848Y-11390674D02*
X12929896Y-11400198D01*
X12929896Y-11400198D02*
X12939420Y-11409722D01*
X12939420Y-11409722D02*
X12948944Y-11428769D01*
X12948944Y-11428769D02*
X12948944Y-11476388D01*
X12948944Y-11476388D02*
X12939420Y-11495436D01*
X12939420Y-11495436D02*
X12929896Y-11504960D01*
X12929896Y-11504960D02*
X12910848Y-11514484D01*
X12910848Y-11514484D02*
X12863229Y-11514484D01*
X12863229Y-11514484D02*
X12844182Y-11504960D01*
X12844182Y-11504960D02*
X12834658Y-11495436D01*
X13025134Y-11314484D02*
X13025134Y-11352579D01*
X13101325Y-11314484D02*
X13101325Y-11352579D01*
X13396563Y-11590674D02*
X13387039Y-11581150D01*
X13387039Y-11581150D02*
X13367991Y-11552579D01*
X13367991Y-11552579D02*
X13358468Y-11533531D01*
X13358468Y-11533531D02*
X13348944Y-11504960D01*
X13348944Y-11504960D02*
X13339420Y-11457341D01*
X13339420Y-11457341D02*
X13339420Y-11419246D01*
X13339420Y-11419246D02*
X13348944Y-11371627D01*
X13348944Y-11371627D02*
X13358468Y-11343055D01*
X13358468Y-11343055D02*
X13367991Y-11324008D01*
X13367991Y-11324008D02*
X13387039Y-11295436D01*
X13387039Y-11295436D02*
X13396563Y-11285912D01*
X13453706Y-11314484D02*
X13577515Y-11314484D01*
X13577515Y-11314484D02*
X13510848Y-11390674D01*
X13510848Y-11390674D02*
X13539420Y-11390674D01*
X13539420Y-11390674D02*
X13558468Y-11400198D01*
X13558468Y-11400198D02*
X13567991Y-11409722D01*
X13567991Y-11409722D02*
X13577515Y-11428769D01*
X13577515Y-11428769D02*
X13577515Y-11476388D01*
X13577515Y-11476388D02*
X13567991Y-11495436D01*
X13567991Y-11495436D02*
X13558468Y-11504960D01*
X13558468Y-11504960D02*
X13539420Y-11514484D01*
X13539420Y-11514484D02*
X13482277Y-11514484D01*
X13482277Y-11514484D02*
X13463229Y-11504960D01*
X13463229Y-11504960D02*
X13453706Y-11495436D01*
X13815610Y-11514484D02*
X13815610Y-11314484D01*
X13901325Y-11514484D02*
X13901325Y-11409722D01*
X13901325Y-11409722D02*
X13891801Y-11390674D01*
X13891801Y-11390674D02*
X13872753Y-11381150D01*
X13872753Y-11381150D02*
X13844182Y-11381150D01*
X13844182Y-11381150D02*
X13825134Y-11390674D01*
X13825134Y-11390674D02*
X13815610Y-11400198D01*
X14025134Y-11514484D02*
X14006087Y-11504960D01*
X14006087Y-11504960D02*
X13996563Y-11495436D01*
X13996563Y-11495436D02*
X13987039Y-11476388D01*
X13987039Y-11476388D02*
X13987039Y-11419246D01*
X13987039Y-11419246D02*
X13996563Y-11400198D01*
X13996563Y-11400198D02*
X14006087Y-11390674D01*
X14006087Y-11390674D02*
X14025134Y-11381150D01*
X14025134Y-11381150D02*
X14053706Y-11381150D01*
X14053706Y-11381150D02*
X14072753Y-11390674D01*
X14072753Y-11390674D02*
X14082277Y-11400198D01*
X14082277Y-11400198D02*
X14091801Y-11419246D01*
X14091801Y-11419246D02*
X14091801Y-11476388D01*
X14091801Y-11476388D02*
X14082277Y-11495436D01*
X14082277Y-11495436D02*
X14072753Y-11504960D01*
X14072753Y-11504960D02*
X14053706Y-11514484D01*
X14053706Y-11514484D02*
X14025134Y-11514484D01*
X14206087Y-11514484D02*
X14187039Y-11504960D01*
X14187039Y-11504960D02*
X14177515Y-11485912D01*
X14177515Y-11485912D02*
X14177515Y-11314484D01*
X14358468Y-11504960D02*
X14339420Y-11514484D01*
X14339420Y-11514484D02*
X14301325Y-11514484D01*
X14301325Y-11514484D02*
X14282277Y-11504960D01*
X14282277Y-11504960D02*
X14272753Y-11485912D01*
X14272753Y-11485912D02*
X14272753Y-11409722D01*
X14272753Y-11409722D02*
X14282277Y-11390674D01*
X14282277Y-11390674D02*
X14301325Y-11381150D01*
X14301325Y-11381150D02*
X14339420Y-11381150D01*
X14339420Y-11381150D02*
X14358468Y-11390674D01*
X14358468Y-11390674D02*
X14367991Y-11409722D01*
X14367991Y-11409722D02*
X14367991Y-11428769D01*
X14367991Y-11428769D02*
X14272753Y-11447817D01*
X14444182Y-11504960D02*
X14463230Y-11514484D01*
X14463230Y-11514484D02*
X14501325Y-11514484D01*
X14501325Y-11514484D02*
X14520372Y-11504960D01*
X14520372Y-11504960D02*
X14529896Y-11485912D01*
X14529896Y-11485912D02*
X14529896Y-11476388D01*
X14529896Y-11476388D02*
X14520372Y-11457341D01*
X14520372Y-11457341D02*
X14501325Y-11447817D01*
X14501325Y-11447817D02*
X14472753Y-11447817D01*
X14472753Y-11447817D02*
X14453706Y-11438293D01*
X14453706Y-11438293D02*
X14444182Y-11419246D01*
X14444182Y-11419246D02*
X14444182Y-11409722D01*
X14444182Y-11409722D02*
X14453706Y-11390674D01*
X14453706Y-11390674D02*
X14472753Y-11381150D01*
X14472753Y-11381150D02*
X14501325Y-11381150D01*
X14501325Y-11381150D02*
X14520372Y-11390674D01*
X14596563Y-11590674D02*
X14606087Y-11581150D01*
X14606087Y-11581150D02*
X14625134Y-11552579D01*
X14625134Y-11552579D02*
X14634658Y-11533531D01*
X14634658Y-11533531D02*
X14644182Y-11504960D01*
X14644182Y-11504960D02*
X14653706Y-11457341D01*
X14653706Y-11457341D02*
X14653706Y-11419246D01*
X14653706Y-11419246D02*
X14644182Y-11371627D01*
X14644182Y-11371627D02*
X14634658Y-11343055D01*
X14634658Y-11343055D02*
X14625134Y-11324008D01*
X14625134Y-11324008D02*
X14606087Y-11295436D01*
X14606087Y-11295436D02*
X14596563Y-11285912D01*
D10*
X9806856Y-11722356D02*
X9806856Y-11651644D01*
X9736144Y-11651644D01*
X9736144Y-11722356D01*
X9806856Y-11722356D01*
D11*
X10187039Y-11778484D02*
X10072753Y-11778484D01*
X10129896Y-11778484D02*
X10129896Y-11578484D01*
X10129896Y-11578484D02*
X10110848Y-11607055D01*
X10110848Y-11607055D02*
X10091801Y-11626103D01*
X10091801Y-11626103D02*
X10072753Y-11635627D01*
X10272753Y-11759436D02*
X10282277Y-11768960D01*
X10282277Y-11768960D02*
X10272753Y-11778484D01*
X10272753Y-11778484D02*
X10263229Y-11768960D01*
X10263229Y-11768960D02*
X10272753Y-11759436D01*
X10272753Y-11759436D02*
X10272753Y-11778484D01*
X10406086Y-11578484D02*
X10425134Y-11578484D01*
X10425134Y-11578484D02*
X10444182Y-11588008D01*
X10444182Y-11588008D02*
X10453705Y-11597531D01*
X10453705Y-11597531D02*
X10463229Y-11616579D01*
X10463229Y-11616579D02*
X10472753Y-11654674D01*
X10472753Y-11654674D02*
X10472753Y-11702293D01*
X10472753Y-11702293D02*
X10463229Y-11740388D01*
X10463229Y-11740388D02*
X10453705Y-11759436D01*
X10453705Y-11759436D02*
X10444182Y-11768960D01*
X10444182Y-11768960D02*
X10425134Y-11778484D01*
X10425134Y-11778484D02*
X10406086Y-11778484D01*
X10406086Y-11778484D02*
X10387039Y-11768960D01*
X10387039Y-11768960D02*
X10377515Y-11759436D01*
X10377515Y-11759436D02*
X10367991Y-11740388D01*
X10367991Y-11740388D02*
X10358467Y-11702293D01*
X10358467Y-11702293D02*
X10358467Y-11654674D01*
X10358467Y-11654674D02*
X10367991Y-11616579D01*
X10367991Y-11616579D02*
X10377515Y-11597531D01*
X10377515Y-11597531D02*
X10387039Y-11588008D01*
X10387039Y-11588008D02*
X10406086Y-11578484D01*
X10596563Y-11578484D02*
X10615610Y-11578484D01*
X10615610Y-11578484D02*
X10634658Y-11588008D01*
X10634658Y-11588008D02*
X10644182Y-11597531D01*
X10644182Y-11597531D02*
X10653705Y-11616579D01*
X10653705Y-11616579D02*
X10663229Y-11654674D01*
X10663229Y-11654674D02*
X10663229Y-11702293D01*
X10663229Y-11702293D02*
X10653705Y-11740388D01*
X10653705Y-11740388D02*
X10644182Y-11759436D01*
X10644182Y-11759436D02*
X10634658Y-11768960D01*
X10634658Y-11768960D02*
X10615610Y-11778484D01*
X10615610Y-11778484D02*
X10596563Y-11778484D01*
X10596563Y-11778484D02*
X10577515Y-11768960D01*
X10577515Y-11768960D02*
X10567991Y-11759436D01*
X10567991Y-11759436D02*
X10558467Y-11740388D01*
X10558467Y-11740388D02*
X10548944Y-11702293D01*
X10548944Y-11702293D02*
X10548944Y-11654674D01*
X10548944Y-11654674D02*
X10558467Y-11616579D01*
X10558467Y-11616579D02*
X10567991Y-11597531D01*
X10567991Y-11597531D02*
X10577515Y-11588008D01*
X10577515Y-11588008D02*
X10596563Y-11578484D01*
X10787039Y-11578484D02*
X10806086Y-11578484D01*
X10806086Y-11578484D02*
X10825134Y-11588008D01*
X10825134Y-11588008D02*
X10834658Y-11597531D01*
X10834658Y-11597531D02*
X10844182Y-11616579D01*
X10844182Y-11616579D02*
X10853705Y-11654674D01*
X10853705Y-11654674D02*
X10853705Y-11702293D01*
X10853705Y-11702293D02*
X10844182Y-11740388D01*
X10844182Y-11740388D02*
X10834658Y-11759436D01*
X10834658Y-11759436D02*
X10825134Y-11768960D01*
X10825134Y-11768960D02*
X10806086Y-11778484D01*
X10806086Y-11778484D02*
X10787039Y-11778484D01*
X10787039Y-11778484D02*
X10767991Y-11768960D01*
X10767991Y-11768960D02*
X10758467Y-11759436D01*
X10758467Y-11759436D02*
X10748944Y-11740388D01*
X10748944Y-11740388D02*
X10739420Y-11702293D01*
X10739420Y-11702293D02*
X10739420Y-11654674D01*
X10739420Y-11654674D02*
X10748944Y-11616579D01*
X10748944Y-11616579D02*
X10758467Y-11597531D01*
X10758467Y-11597531D02*
X10767991Y-11588008D01*
X10767991Y-11588008D02*
X10787039Y-11578484D01*
X10939420Y-11778484D02*
X10939420Y-11645150D01*
X10939420Y-11664198D02*
X10948944Y-11654674D01*
X10948944Y-11654674D02*
X10967991Y-11645150D01*
X10967991Y-11645150D02*
X10996563Y-11645150D01*
X10996563Y-11645150D02*
X11015610Y-11654674D01*
X11015610Y-11654674D02*
X11025134Y-11673722D01*
X11025134Y-11673722D02*
X11025134Y-11778484D01*
X11025134Y-11673722D02*
X11034658Y-11654674D01*
X11034658Y-11654674D02*
X11053705Y-11645150D01*
X11053705Y-11645150D02*
X11082277Y-11645150D01*
X11082277Y-11645150D02*
X11101325Y-11654674D01*
X11101325Y-11654674D02*
X11110848Y-11673722D01*
X11110848Y-11673722D02*
X11110848Y-11778484D01*
X11206086Y-11778484D02*
X11206086Y-11645150D01*
X11206086Y-11664198D02*
X11215610Y-11654674D01*
X11215610Y-11654674D02*
X11234658Y-11645150D01*
X11234658Y-11645150D02*
X11263229Y-11645150D01*
X11263229Y-11645150D02*
X11282277Y-11654674D01*
X11282277Y-11654674D02*
X11291801Y-11673722D01*
X11291801Y-11673722D02*
X11291801Y-11778484D01*
X11291801Y-11673722D02*
X11301324Y-11654674D01*
X11301324Y-11654674D02*
X11320372Y-11645150D01*
X11320372Y-11645150D02*
X11348943Y-11645150D01*
X11348943Y-11645150D02*
X11367991Y-11654674D01*
X11367991Y-11654674D02*
X11377515Y-11673722D01*
X11377515Y-11673722D02*
X11377515Y-11778484D01*
X11767991Y-11568960D02*
X11596563Y-11826103D01*
X12025134Y-11578484D02*
X12044182Y-11578484D01*
X12044182Y-11578484D02*
X12063229Y-11588008D01*
X12063229Y-11588008D02*
X12072753Y-11597531D01*
X12072753Y-11597531D02*
X12082277Y-11616579D01*
X12082277Y-11616579D02*
X12091801Y-11654674D01*
X12091801Y-11654674D02*
X12091801Y-11702293D01*
X12091801Y-11702293D02*
X12082277Y-11740388D01*
X12082277Y-11740388D02*
X12072753Y-11759436D01*
X12072753Y-11759436D02*
X12063229Y-11768960D01*
X12063229Y-11768960D02*
X12044182Y-11778484D01*
X12044182Y-11778484D02*
X12025134Y-11778484D01*
X12025134Y-11778484D02*
X12006086Y-11768960D01*
X12006086Y-11768960D02*
X11996563Y-11759436D01*
X11996563Y-11759436D02*
X11987039Y-11740388D01*
X11987039Y-11740388D02*
X11977515Y-11702293D01*
X11977515Y-11702293D02*
X11977515Y-11654674D01*
X11977515Y-11654674D02*
X11987039Y-11616579D01*
X11987039Y-11616579D02*
X11996563Y-11597531D01*
X11996563Y-11597531D02*
X12006086Y-11588008D01*
X12006086Y-11588008D02*
X12025134Y-11578484D01*
X12177515Y-11759436D02*
X12187039Y-11768960D01*
X12187039Y-11768960D02*
X12177515Y-11778484D01*
X12177515Y-11778484D02*
X12167991Y-11768960D01*
X12167991Y-11768960D02*
X12177515Y-11759436D01*
X12177515Y-11759436D02*
X12177515Y-11778484D01*
X12310848Y-11578484D02*
X12329896Y-11578484D01*
X12329896Y-11578484D02*
X12348944Y-11588008D01*
X12348944Y-11588008D02*
X12358467Y-11597531D01*
X12358467Y-11597531D02*
X12367991Y-11616579D01*
X12367991Y-11616579D02*
X12377515Y-11654674D01*
X12377515Y-11654674D02*
X12377515Y-11702293D01*
X12377515Y-11702293D02*
X12367991Y-11740388D01*
X12367991Y-11740388D02*
X12358467Y-11759436D01*
X12358467Y-11759436D02*
X12348944Y-11768960D01*
X12348944Y-11768960D02*
X12329896Y-11778484D01*
X12329896Y-11778484D02*
X12310848Y-11778484D01*
X12310848Y-11778484D02*
X12291801Y-11768960D01*
X12291801Y-11768960D02*
X12282277Y-11759436D01*
X12282277Y-11759436D02*
X12272753Y-11740388D01*
X12272753Y-11740388D02*
X12263229Y-11702293D01*
X12263229Y-11702293D02*
X12263229Y-11654674D01*
X12263229Y-11654674D02*
X12272753Y-11616579D01*
X12272753Y-11616579D02*
X12282277Y-11597531D01*
X12282277Y-11597531D02*
X12291801Y-11588008D01*
X12291801Y-11588008D02*
X12310848Y-11578484D01*
X12444182Y-11578484D02*
X12567991Y-11578484D01*
X12567991Y-11578484D02*
X12501325Y-11654674D01*
X12501325Y-11654674D02*
X12529896Y-11654674D01*
X12529896Y-11654674D02*
X12548944Y-11664198D01*
X12548944Y-11664198D02*
X12558467Y-11673722D01*
X12558467Y-11673722D02*
X12567991Y-11692769D01*
X12567991Y-11692769D02*
X12567991Y-11740388D01*
X12567991Y-11740388D02*
X12558467Y-11759436D01*
X12558467Y-11759436D02*
X12548944Y-11768960D01*
X12548944Y-11768960D02*
X12529896Y-11778484D01*
X12529896Y-11778484D02*
X12472753Y-11778484D01*
X12472753Y-11778484D02*
X12453706Y-11768960D01*
X12453706Y-11768960D02*
X12444182Y-11759436D01*
X12663229Y-11778484D02*
X12701325Y-11778484D01*
X12701325Y-11778484D02*
X12720372Y-11768960D01*
X12720372Y-11768960D02*
X12729896Y-11759436D01*
X12729896Y-11759436D02*
X12748944Y-11730865D01*
X12748944Y-11730865D02*
X12758467Y-11692769D01*
X12758467Y-11692769D02*
X12758467Y-11616579D01*
X12758467Y-11616579D02*
X12748944Y-11597531D01*
X12748944Y-11597531D02*
X12739420Y-11588008D01*
X12739420Y-11588008D02*
X12720372Y-11578484D01*
X12720372Y-11578484D02*
X12682277Y-11578484D01*
X12682277Y-11578484D02*
X12663229Y-11588008D01*
X12663229Y-11588008D02*
X12653706Y-11597531D01*
X12653706Y-11597531D02*
X12644182Y-11616579D01*
X12644182Y-11616579D02*
X12644182Y-11664198D01*
X12644182Y-11664198D02*
X12653706Y-11683246D01*
X12653706Y-11683246D02*
X12663229Y-11692769D01*
X12663229Y-11692769D02*
X12682277Y-11702293D01*
X12682277Y-11702293D02*
X12720372Y-11702293D01*
X12720372Y-11702293D02*
X12739420Y-11692769D01*
X12739420Y-11692769D02*
X12748944Y-11683246D01*
X12748944Y-11683246D02*
X12758467Y-11664198D01*
X12929896Y-11645150D02*
X12929896Y-11778484D01*
X12882277Y-11568960D02*
X12834658Y-11711817D01*
X12834658Y-11711817D02*
X12958467Y-11711817D01*
X13025134Y-11578484D02*
X13025134Y-11616579D01*
X13101325Y-11578484D02*
X13101325Y-11616579D01*
X13396563Y-11854674D02*
X13387039Y-11845150D01*
X13387039Y-11845150D02*
X13367991Y-11816579D01*
X13367991Y-11816579D02*
X13358468Y-11797531D01*
X13358468Y-11797531D02*
X13348944Y-11768960D01*
X13348944Y-11768960D02*
X13339420Y-11721341D01*
X13339420Y-11721341D02*
X13339420Y-11683246D01*
X13339420Y-11683246D02*
X13348944Y-11635627D01*
X13348944Y-11635627D02*
X13358468Y-11607055D01*
X13358468Y-11607055D02*
X13367991Y-11588008D01*
X13367991Y-11588008D02*
X13387039Y-11559436D01*
X13387039Y-11559436D02*
X13396563Y-11549912D01*
X13453706Y-11578484D02*
X13587039Y-11578484D01*
X13587039Y-11578484D02*
X13501325Y-11778484D01*
X13815610Y-11778484D02*
X13815610Y-11578484D01*
X13901325Y-11778484D02*
X13901325Y-11673722D01*
X13901325Y-11673722D02*
X13891801Y-11654674D01*
X13891801Y-11654674D02*
X13872753Y-11645150D01*
X13872753Y-11645150D02*
X13844182Y-11645150D01*
X13844182Y-11645150D02*
X13825134Y-11654674D01*
X13825134Y-11654674D02*
X13815610Y-11664198D01*
X14025134Y-11778484D02*
X14006087Y-11768960D01*
X14006087Y-11768960D02*
X13996563Y-11759436D01*
X13996563Y-11759436D02*
X13987039Y-11740388D01*
X13987039Y-11740388D02*
X13987039Y-11683246D01*
X13987039Y-11683246D02*
X13996563Y-11664198D01*
X13996563Y-11664198D02*
X14006087Y-11654674D01*
X14006087Y-11654674D02*
X14025134Y-11645150D01*
X14025134Y-11645150D02*
X14053706Y-11645150D01*
X14053706Y-11645150D02*
X14072753Y-11654674D01*
X14072753Y-11654674D02*
X14082277Y-11664198D01*
X14082277Y-11664198D02*
X14091801Y-11683246D01*
X14091801Y-11683246D02*
X14091801Y-11740388D01*
X14091801Y-11740388D02*
X14082277Y-11759436D01*
X14082277Y-11759436D02*
X14072753Y-11768960D01*
X14072753Y-11768960D02*
X14053706Y-11778484D01*
X14053706Y-11778484D02*
X14025134Y-11778484D01*
X14206087Y-11778484D02*
X14187039Y-11768960D01*
X14187039Y-11768960D02*
X14177515Y-11749912D01*
X14177515Y-11749912D02*
X14177515Y-11578484D01*
X14358468Y-11768960D02*
X14339420Y-11778484D01*
X14339420Y-11778484D02*
X14301325Y-11778484D01*
X14301325Y-11778484D02*
X14282277Y-11768960D01*
X14282277Y-11768960D02*
X14272753Y-11749912D01*
X14272753Y-11749912D02*
X14272753Y-11673722D01*
X14272753Y-11673722D02*
X14282277Y-11654674D01*
X14282277Y-11654674D02*
X14301325Y-11645150D01*
X14301325Y-11645150D02*
X14339420Y-11645150D01*
X14339420Y-11645150D02*
X14358468Y-11654674D01*
X14358468Y-11654674D02*
X14367991Y-11673722D01*
X14367991Y-11673722D02*
X14367991Y-11692769D01*
X14367991Y-11692769D02*
X14272753Y-11711817D01*
X14444182Y-11768960D02*
X14463230Y-11778484D01*
X14463230Y-11778484D02*
X14501325Y-11778484D01*
X14501325Y-11778484D02*
X14520372Y-11768960D01*
X14520372Y-11768960D02*
X14529896Y-11749912D01*
X14529896Y-11749912D02*
X14529896Y-11740388D01*
X14529896Y-11740388D02*
X14520372Y-11721341D01*
X14520372Y-11721341D02*
X14501325Y-11711817D01*
X14501325Y-11711817D02*
X14472753Y-11711817D01*
X14472753Y-11711817D02*
X14453706Y-11702293D01*
X14453706Y-11702293D02*
X14444182Y-11683246D01*
X14444182Y-11683246D02*
X14444182Y-11673722D01*
X14444182Y-11673722D02*
X14453706Y-11654674D01*
X14453706Y-11654674D02*
X14472753Y-11645150D01*
X14472753Y-11645150D02*
X14501325Y-11645150D01*
X14501325Y-11645150D02*
X14520372Y-11654674D01*
X14596563Y-11854674D02*
X14606087Y-11845150D01*
X14606087Y-11845150D02*
X14625134Y-11816579D01*
X14625134Y-11816579D02*
X14634658Y-11797531D01*
X14634658Y-11797531D02*
X14644182Y-11768960D01*
X14644182Y-11768960D02*
X14653706Y-11721341D01*
X14653706Y-11721341D02*
X14653706Y-11683246D01*
X14653706Y-11683246D02*
X14644182Y-11635627D01*
X14644182Y-11635627D02*
X14634658Y-11607055D01*
X14634658Y-11607055D02*
X14625134Y-11588008D01*
X14625134Y-11588008D02*
X14606087Y-11559436D01*
X14606087Y-11559436D02*
X14596563Y-11549912D01*
M02*
